<svg width="407" height="66" viewBox="0 0 407 66" fill="none" xmlns="http://www.w3.org/2000/svg">
<path d="M151.283 0C158.935 0 164.429 7.58123 167.686 14.5059C169.895 19.2032 173.597 22.9452 177.69 26.0625C181.792 29.1857 186.628 31.9348 191.482 34.5078C201.532 39.8345 211.532 44.4157 219.099 50.6133C226.678 56.8211 220.249 66 210.452 66H33C14.7746 66 0 51.2254 0 33C0 14.7746 14.7746 0 33 0H151.283ZM374 0C392.225 0 407 14.7746 407 33C407 51.2254 392.225 66 374 66H257.243C247.659 66 239.912 58.3496 234.263 50.6066C231.945 47.4287 229.137 44.6162 226.068 42.1025C217.385 34.9906 205.797 29.6459 196.634 24.7891C191.882 22.2703 187.707 19.8632 184.354 17.3105C180.995 14.7521 178.803 12.298 177.64 9.8252C175.075 4.3722 181.594 0 187.62 0H374Z" fill="#474653"/>
</svg>
