<svg width="24" height="24" viewBox="0 0 24 24" fill="none" xmlns="http://www.w3.org/2000/svg">
<g clip-path="url(#clip0_1146_4380)">
<path d="M18.2461 15.8765C17.462 15.1024 16.4832 15.1024 15.7041 15.8765C15.1098 16.4658 14.5155 17.0551 13.9312 17.6544C13.7713 17.8192 13.6365 17.8542 13.4417 17.7443C13.0572 17.5345 12.6477 17.3647 12.2781 17.135C10.5551 16.0513 9.11178 14.6579 7.83327 13.0897C7.19901 12.3106 6.63467 11.4766 6.24013 10.5377C6.16023 10.3479 6.17521 10.2231 6.33003 10.0683C6.92434 9.49392 7.50366 8.90461 8.08798 8.3153C8.90203 7.49625 8.90203 6.53737 8.08298 5.71334C7.61853 5.24388 7.15407 4.78442 6.68961 4.31497C6.21017 3.83553 5.73572 3.35109 5.25129 2.87664C4.4672 2.11254 3.48834 2.11254 2.70925 2.88164C2.10995 3.47095 1.53562 4.07525 0.926333 4.65457C0.361991 5.18895 0.0773229 5.84318 0.0173928 6.60729C-0.0774965 7.85084 0.227148 9.02447 0.656647 10.1681C1.53562 12.5354 2.87406 14.6379 4.49717 16.5657C6.68961 19.1726 9.30656 21.2352 12.368 22.7235C13.7464 23.3927 15.1747 23.9071 16.7279 23.992C17.7967 24.0519 18.7256 23.7823 19.4697 22.9482C19.9791 22.3789 20.5534 21.8595 21.0928 21.3151C21.8919 20.5061 21.8969 19.5272 21.1028 18.7282C20.1539 17.7743 19.2 16.8254 18.2461 15.8765ZM17.2922 11.8961L19.1351 11.5815C18.8454 9.88846 18.0464 8.35525 16.8328 7.13667C15.5493 5.85317 13.9262 5.04412 12.1383 4.79441L11.8786 6.64725C13.2619 6.84202 14.5205 7.46629 15.5143 8.46013C16.4532 9.39903 17.0675 10.5876 17.2922 11.8961ZM20.1739 3.88547C18.0464 1.75795 15.3545 0.414516 12.383 0L12.1233 1.85284C14.6903 2.21242 17.0176 3.37606 18.8554 5.20892C20.5984 6.95189 21.742 9.15432 22.1566 11.5765L23.9994 11.2619C23.515 8.45514 22.1915 5.90811 20.1739 3.88547Z" fill="#474653"/>
</g>
<defs>
<clipPath id="clip0_1146_4380">
<rect width="24" height="24" fill="white"/>
</clipPath>
</defs>
</svg>
