<svg width="24" height="24" viewBox="0 0 24 24" fill="none" xmlns="http://www.w3.org/2000/svg">
<g clip-path="url(#clip0_1146_4387)">
<path d="M12 4.125C10.4425 4.125 8.91993 4.58686 7.62489 5.45218C6.32985 6.31749 5.32049 7.5474 4.72445 8.98637C4.12841 10.4253 3.97246 12.0087 4.27632 13.5363C4.58018 15.0639 5.3302 16.4671 6.43154 17.5685C7.53288 18.6698 8.93607 19.4198 10.4637 19.7237C11.9913 20.0275 13.5747 19.8716 15.0136 19.2756C16.4526 18.6795 17.6825 17.6702 18.5478 16.3751C19.4131 15.0801 19.875 13.5575 19.875 12C19.8728 9.91209 19.0424 7.91032 17.5661 6.43395C16.0897 4.95757 14.0879 4.12718 12 4.125ZM15.585 14.715C15.5152 14.8034 15.4263 14.875 15.3251 14.9243C15.2238 14.9737 15.1127 14.9995 15 15C14.8304 15.0014 14.6658 14.9429 14.535 14.835L11.535 12.585C11.4466 12.5152 11.3751 12.4263 11.3258 12.325C11.2764 12.2237 11.2505 12.1127 11.25 12V6.75C11.25 6.55109 11.329 6.36032 11.4697 6.21967C11.6103 6.07902 11.8011 6 12 6C12.1989 6 12.3897 6.07902 12.5303 6.21967C12.671 6.36032 12.75 6.55109 12.75 6.75V11.64L15.465 13.665C15.543 13.7252 15.6082 13.8004 15.6567 13.8862C15.7051 13.972 15.7358 14.0667 15.747 14.1646C15.7582 14.2625 15.7496 14.3617 15.7218 14.4562C15.694 14.5508 15.6475 14.6388 15.585 14.715Z" fill="#474653"/>
<path d="M12 0.75C9.77497 0.75 7.59989 1.4098 5.74984 2.64597C3.89979 3.88213 2.45785 5.63914 1.60636 7.69481C0.754875 9.75048 0.532087 12.0125 0.966171 14.1948C1.40025 16.3771 2.47171 18.3816 4.04505 19.955C5.61839 21.5283 7.62295 22.5998 9.80524 23.0338C11.9875 23.4679 14.2495 23.2451 16.3052 22.3936C18.3609 21.5422 20.1179 20.1002 21.354 18.2502C22.5902 16.4001 23.25 14.225 23.25 12C23.2464 9.01741 22.06 6.158 19.951 4.04899C17.842 1.93998 14.9826 0.753573 12 0.75ZM12 21.4252C10.1359 21.4252 8.31359 20.8725 6.76362 19.8368C5.21364 18.8011 4.00558 17.3291 3.29221 15.6069C2.57883 13.8846 2.39218 11.9895 2.75586 10.1612C3.11953 8.33291 4.0172 6.65349 5.33535 5.33534C6.65349 4.0172 8.33291 3.11953 10.1612 2.75585C11.9895 2.39218 13.8847 2.57883 15.6069 3.2922C17.3291 4.00558 18.8012 5.21364 19.8368 6.76361C20.8725 8.31359 21.4253 10.1359 21.4253 12C21.4229 14.499 20.4291 16.895 18.662 18.662C16.895 20.4291 14.499 21.4229 12 21.4252Z" fill="#474653"/>
</g>
<defs>
<clipPath id="clip0_1146_4387">
<rect width="24" height="24" fill="white"/>
</clipPath>
</defs>
</svg>
