<svg width="38" height="40" viewBox="0 0 38 40" fill="none" xmlns="http://www.w3.org/2000/svg">
<path d="M33.5293 16.4883C33.5293 18.6779 32.5375 20.7706 31.1855 22.6201C29.8264 24.4794 28.0358 26.1849 26.2803 27.6221C24.5198 29.0633 22.7648 30.2595 21.4521 31.0938C20.7951 31.5113 20.2462 31.8394 19.8604 32.0645C19.6674 32.177 19.5143 32.2641 19.4092 32.3232C19.3568 32.3527 19.3161 32.3751 19.2881 32.3906C19.2742 32.3983 19.2635 32.405 19.2559 32.4092L19.2441 32.415L19.2432 32.416L18.7646 31.5381L19.2422 32.416L18.7617 32.6777L18.2812 32.4131L18.2803 32.4121C18.2796 32.4117 18.2784 32.4117 18.2773 32.4111C18.2752 32.41 18.2723 32.4083 18.2686 32.4062C18.261 32.402 18.2503 32.3955 18.2363 32.3877C18.2083 32.372 18.1676 32.3492 18.1152 32.3193C18.0103 32.2595 17.8578 32.1715 17.665 32.0576C17.2794 31.8298 16.7303 31.4972 16.0732 31.0752C14.7612 30.2325 13.0066 29.0266 11.2471 27.5791C9.49237 26.1356 7.70315 24.4271 6.34473 22.5742C4.99448 20.7325 4.00001 18.6532 4 16.4883C4 11.803 7.7961 8.00506 12.4805 8.00098V8C12.4824 7.99998 12.4844 8.00099 12.4863 8.00098L12.4883 8V8.00098C13.899 7.99133 15.2897 8.33553 16.5322 9.00391C17.3738 9.4567 18.1287 10.0491 18.7676 10.751C19.4076 10.0531 20.1624 9.46534 21.002 9.01367C22.2442 8.34535 23.6333 7.99658 25.0439 8H25.0459C29.7215 8.02276 33.5065 11.8077 33.5293 16.4834V16.4883Z" stroke="#474653" stroke-width="2"/>
</svg>
