<svg width="336" height="108" viewBox="0 0 336 108" fill="none" xmlns="http://www.w3.org/2000/svg">
<g clip-path="url(#clip0_1093_3504)">
<path d="M0 0V49C0 74.9574 21.0426 96 47 96H152" stroke="#F7D5A0" stroke-width="2" stroke-linecap="round"/>
<path d="M157.891 88.12H161.842C162.592 88.12 163.27 88.249 163.876 88.507C164.488 88.765 164.974 89.161 165.334 89.695C165.694 90.223 165.874 90.898 165.874 91.72C165.874 92.536 165.694 93.223 165.334 93.781C164.974 94.339 164.488 94.762 163.876 95.05C163.27 95.332 162.592 95.473 161.842 95.473H160.132V100H157.891V88.12ZM160.132 93.664H161.221C161.641 93.664 162.019 93.604 162.355 93.484C162.697 93.358 162.97 93.157 163.174 92.881C163.378 92.605 163.48 92.236 163.48 91.774C163.48 91.306 163.378 90.94 163.174 90.676C162.97 90.406 162.697 90.214 162.355 90.1C162.019 89.98 161.641 89.92 161.221 89.92H160.132V93.664ZM169.313 100H167.027V92.611H169.313V93.808H169.268C169.31 93.664 169.424 93.481 169.61 93.259C169.802 93.037 170.066 92.839 170.402 92.665C170.738 92.485 171.143 92.395 171.617 92.395C171.959 92.395 172.268 92.446 172.544 92.548C172.826 92.644 173.027 92.74 173.147 92.836L172.247 94.708C172.169 94.612 172.022 94.513 171.806 94.411C171.596 94.309 171.332 94.258 171.014 94.258C170.636 94.258 170.321 94.363 170.069 94.573C169.817 94.777 169.628 95.029 169.502 95.329C169.376 95.623 169.313 95.899 169.313 96.157V100ZM175.508 96.814C175.526 97.15 175.616 97.45 175.778 97.714C175.94 97.978 176.174 98.185 176.48 98.335C176.792 98.485 177.164 98.56 177.596 98.56C177.986 98.56 178.328 98.512 178.622 98.416C178.922 98.32 179.174 98.203 179.378 98.065C179.588 97.921 179.744 97.783 179.846 97.651L180.791 99.055C180.623 99.265 180.398 99.46 180.116 99.64C179.84 99.814 179.486 99.952 179.054 100.054C178.628 100.162 178.094 100.216 177.452 100.216C176.642 100.216 175.931 100.057 175.319 99.739C174.707 99.421 174.23 98.962 173.888 98.362C173.546 97.762 173.375 97.048 173.375 96.22C173.375 95.5 173.528 94.852 173.834 94.276C174.14 93.694 174.584 93.235 175.166 92.899C175.754 92.563 176.459 92.395 177.281 92.395C178.055 92.395 178.724 92.545 179.288 92.845C179.858 93.139 180.299 93.571 180.611 94.141C180.923 94.711 181.079 95.407 181.079 96.229C181.079 96.277 181.076 96.376 181.07 96.526C181.07 96.67 181.064 96.766 181.052 96.814H175.508ZM178.937 95.401C178.931 95.209 178.871 95.002 178.757 94.78C178.649 94.558 178.478 94.369 178.244 94.213C178.01 94.057 177.698 93.979 177.308 93.979C176.918 93.979 176.597 94.054 176.345 94.204C176.099 94.354 175.913 94.54 175.787 94.762C175.661 94.978 175.589 95.191 175.571 95.401H178.937ZM192.279 92.395C192.831 92.395 193.311 92.512 193.719 92.746C194.133 92.98 194.454 93.34 194.682 93.826C194.916 94.306 195.033 94.924 195.033 95.68V100H192.783V96.049C192.783 95.425 192.69 94.939 192.504 94.591C192.324 94.243 191.979 94.069 191.469 94.069C191.181 94.069 190.917 94.147 190.677 94.303C190.437 94.453 190.245 94.675 190.101 94.969C189.963 95.263 189.894 95.623 189.894 96.049V100H187.788V96.049C187.788 95.425 187.683 94.939 187.473 94.591C187.263 94.243 186.93 94.069 186.474 94.069C186.18 94.069 185.913 94.144 185.673 94.294C185.439 94.444 185.253 94.666 185.115 94.96C184.983 95.248 184.917 95.611 184.917 96.049V100H182.649V92.611H184.917V93.691C184.983 93.505 185.133 93.313 185.367 93.115C185.607 92.917 185.904 92.749 186.258 92.611C186.612 92.467 186.993 92.395 187.401 92.395C187.845 92.395 188.214 92.47 188.508 92.62C188.802 92.77 189.039 92.962 189.219 93.196C189.405 93.424 189.546 93.664 189.642 93.916C189.726 93.682 189.891 93.448 190.137 93.214C190.383 92.98 190.692 92.785 191.064 92.629C191.436 92.473 191.841 92.395 192.279 92.395ZM196.96 100V92.611H199.237V100H196.96ZM198.13 90.703C197.752 90.703 197.431 90.571 197.167 90.307C196.909 90.043 196.78 89.728 196.78 89.362C196.78 88.996 196.912 88.678 197.176 88.408C197.44 88.138 197.758 88.003 198.13 88.003C198.376 88.003 198.601 88.066 198.805 88.192C199.009 88.312 199.174 88.474 199.3 88.678C199.426 88.882 199.489 89.11 199.489 89.362C199.489 89.728 199.354 90.043 199.084 90.307C198.82 90.571 198.502 90.703 198.13 90.703ZM203.476 96.148C203.476 96.808 203.608 97.336 203.872 97.732C204.136 98.122 204.562 98.317 205.15 98.317C205.744 98.317 206.173 98.122 206.437 97.732C206.701 97.336 206.833 96.808 206.833 96.148V92.611H209.083V96.409C209.083 97.171 208.93 97.84 208.624 98.416C208.318 98.986 207.871 99.43 207.283 99.748C206.701 100.06 205.99 100.216 205.15 100.216C204.316 100.216 203.605 100.06 203.017 99.748C202.435 99.43 201.991 98.986 201.685 98.416C201.379 97.84 201.226 97.171 201.226 96.409V92.611H203.476V96.148ZM220.598 92.395C221.15 92.395 221.63 92.512 222.038 92.746C222.452 92.98 222.773 93.34 223.001 93.826C223.235 94.306 223.352 94.924 223.352 95.68V100H221.102V96.049C221.102 95.425 221.009 94.939 220.823 94.591C220.643 94.243 220.298 94.069 219.788 94.069C219.5 94.069 219.236 94.147 218.996 94.303C218.756 94.453 218.564 94.675 218.42 94.969C218.282 95.263 218.213 95.623 218.213 96.049V100H216.107V96.049C216.107 95.425 216.002 94.939 215.792 94.591C215.582 94.243 215.249 94.069 214.793 94.069C214.499 94.069 214.232 94.144 213.992 94.294C213.758 94.444 213.572 94.666 213.434 94.96C213.302 95.248 213.236 95.611 213.236 96.049V100H210.968V92.611H213.236V93.691C213.302 93.505 213.452 93.313 213.686 93.115C213.926 92.917 214.223 92.749 214.577 92.611C214.931 92.467 215.312 92.395 215.72 92.395C216.164 92.395 216.533 92.47 216.827 92.62C217.121 92.77 217.358 92.962 217.538 93.196C217.724 93.424 217.865 93.664 217.961 93.916C218.045 93.682 218.21 93.448 218.456 93.214C218.702 92.98 219.011 92.785 219.383 92.629C219.755 92.473 220.16 92.395 220.598 92.395ZM238.612 100.459C238.954 100.459 239.257 100.417 239.521 100.333C239.791 100.255 240.007 100.171 240.169 100.081C240.331 99.997 240.424 99.94 240.448 99.91L241.249 101.422C241.081 101.674 240.775 101.923 240.331 102.169C239.887 102.415 239.317 102.538 238.621 102.538C238.189 102.538 237.82 102.487 237.514 102.385C237.208 102.289 236.923 102.175 236.659 102.043C236.401 101.917 236.122 101.803 235.822 101.701C235.522 101.605 235.162 101.557 234.742 101.557C234.37 101.557 234.043 101.617 233.761 101.737C233.479 101.857 233.254 101.977 233.086 102.097C232.924 102.217 232.837 102.289 232.825 102.313L231.853 101.179C232.231 100.783 232.699 100.456 233.257 100.198C233.821 99.946 234.466 99.82 235.192 99.82C235.678 99.82 236.104 99.874 236.47 99.982C236.836 100.09 237.187 100.195 237.523 100.297C237.859 100.405 238.222 100.459 238.612 100.459ZM231.7 94.051C231.7 94.807 231.856 95.491 232.168 96.103C232.486 96.715 232.921 97.201 233.473 97.561C234.025 97.915 234.664 98.092 235.39 98.092C236.116 98.092 236.755 97.915 237.307 97.561C237.865 97.201 238.3 96.715 238.612 96.103C238.924 95.491 239.08 94.807 239.08 94.051C239.08 93.295 238.924 92.614 238.612 92.008C238.3 91.396 237.865 90.91 237.307 90.55C236.755 90.19 236.116 90.01 235.39 90.01C234.664 90.01 234.025 90.19 233.473 90.55C232.921 90.91 232.486 91.396 232.168 92.008C231.856 92.614 231.7 93.295 231.7 94.051ZM229.36 94.051C229.36 93.187 229.51 92.383 229.81 91.639C230.116 90.889 230.542 90.235 231.088 89.677C231.634 89.119 232.273 88.684 233.005 88.372C233.743 88.06 234.538 87.904 235.39 87.904C236.254 87.904 237.052 88.06 237.784 88.372C238.516 88.684 239.152 89.119 239.692 89.677C240.238 90.235 240.661 90.889 240.961 91.639C241.261 92.383 241.411 93.187 241.411 94.051C241.411 94.921 241.264 95.731 240.97 96.481C240.676 97.225 240.259 97.879 239.719 98.443C239.179 99.001 238.543 99.436 237.811 99.748C237.079 100.06 236.272 100.216 235.39 100.216C234.496 100.216 233.68 100.06 232.942 99.748C232.21 99.436 231.574 99.001 231.034 98.443C230.5 97.879 230.086 97.225 229.792 96.481C229.504 95.731 229.36 94.921 229.36 94.051ZM244.961 96.148C244.961 96.808 245.093 97.336 245.357 97.732C245.621 98.122 246.047 98.317 246.635 98.317C247.229 98.317 247.658 98.122 247.922 97.732C248.186 97.336 248.318 96.808 248.318 96.148V92.611H250.568V96.409C250.568 97.171 250.415 97.84 250.109 98.416C249.803 98.986 249.356 99.43 248.768 99.748C248.186 100.06 247.475 100.216 246.635 100.216C245.801 100.216 245.09 100.06 244.502 99.748C243.92 99.43 243.476 98.986 243.17 98.416C242.864 97.84 242.711 97.171 242.711 96.409V92.611H244.961V96.148ZM258.23 100V98.713C258.176 98.845 258.038 99.031 257.816 99.271C257.594 99.511 257.294 99.73 256.916 99.928C256.544 100.12 256.106 100.216 255.602 100.216C254.894 100.216 254.267 100.048 253.721 99.712C253.175 99.37 252.746 98.905 252.434 98.317C252.128 97.723 251.975 97.054 251.975 96.31C251.975 95.566 252.128 94.9 252.434 94.312C252.746 93.718 253.175 93.25 253.721 92.908C254.267 92.566 254.894 92.395 255.602 92.395C256.094 92.395 256.52 92.479 256.88 92.647C257.246 92.809 257.54 93.001 257.762 93.223C257.99 93.439 258.137 93.634 258.203 93.808V92.611H260.471V100H258.23ZM254.216 96.31C254.216 96.724 254.309 97.09 254.495 97.408C254.681 97.72 254.927 97.963 255.233 98.137C255.539 98.311 255.872 98.398 256.232 98.398C256.61 98.398 256.946 98.311 257.24 98.137C257.534 97.957 257.765 97.711 257.933 97.399C258.107 97.081 258.194 96.718 258.194 96.31C258.194 95.902 258.107 95.542 257.933 95.23C257.765 94.912 257.534 94.663 257.24 94.483C256.946 94.303 256.61 94.213 256.232 94.213C255.872 94.213 255.539 94.303 255.233 94.483C254.927 94.657 254.681 94.903 254.495 95.221C254.309 95.533 254.216 95.896 254.216 96.31ZM264.661 100H262.366V87.616H264.661V100ZM266.727 100V92.611H269.004V100H266.727ZM267.897 90.703C267.519 90.703 267.198 90.571 266.934 90.307C266.676 90.043 266.547 89.728 266.547 89.362C266.547 88.996 266.679 88.678 266.943 88.408C267.207 88.138 267.525 88.003 267.897 88.003C268.143 88.003 268.368 88.066 268.572 88.192C268.776 88.312 268.941 88.474 269.067 88.678C269.193 88.882 269.256 89.11 269.256 89.362C269.256 89.728 269.121 90.043 268.851 90.307C268.587 90.571 268.269 90.703 267.897 90.703ZM270.454 92.611H271.786V89.578H274.054V92.611H275.8V94.51H274.054V97.183C274.054 97.537 274.111 97.813 274.225 98.011C274.339 98.203 274.519 98.299 274.765 98.299C274.951 98.299 275.104 98.263 275.224 98.191C275.344 98.113 275.416 98.059 275.44 98.029L276.25 99.667C276.214 99.703 276.097 99.766 275.899 99.856C275.707 99.946 275.458 100.027 275.152 100.099C274.852 100.177 274.513 100.216 274.135 100.216C273.457 100.216 272.896 100.021 272.452 99.631C272.008 99.235 271.786 98.623 271.786 97.795V94.51H270.454V92.611ZM280.868 97.993L283.055 92.611H285.314L280.265 103.744H277.97L279.671 100L276.602 92.611H278.888L280.868 97.993ZM291.001 88.12H294.781C295.447 88.12 296.068 88.21 296.644 88.39C297.22 88.57 297.685 88.87 298.039 89.29C298.399 89.71 298.579 90.283 298.579 91.009C298.579 91.495 298.486 91.93 298.3 92.314C298.114 92.698 297.877 93.013 297.589 93.259C297.301 93.499 296.998 93.652 296.68 93.718C296.95 93.748 297.226 93.829 297.508 93.961C297.79 94.093 298.051 94.276 298.291 94.51C298.531 94.744 298.723 95.038 298.867 95.392C299.017 95.746 299.092 96.16 299.092 96.634C299.092 97.294 298.948 97.879 298.66 98.389C298.378 98.893 297.958 99.289 297.4 99.577C296.848 99.859 296.161 100 295.339 100H291.001V88.12ZM293.251 98.182H294.88C295.336 98.182 295.699 98.107 295.969 97.957C296.245 97.807 296.443 97.603 296.563 97.345C296.683 97.087 296.743 96.793 296.743 96.463C296.743 95.935 296.575 95.53 296.239 95.248C295.903 94.966 295.426 94.825 294.808 94.825H293.251V98.182ZM293.251 93.043H294.682C295.054 93.043 295.36 92.971 295.6 92.827C295.846 92.677 296.032 92.479 296.158 92.233C296.284 91.981 296.347 91.708 296.347 91.414C296.347 90.85 296.182 90.463 295.852 90.253C295.528 90.043 295.087 89.938 294.529 89.938H293.251V93.043ZM302.527 96.814C302.545 97.15 302.635 97.45 302.797 97.714C302.959 97.978 303.193 98.185 303.499 98.335C303.811 98.485 304.183 98.56 304.615 98.56C305.005 98.56 305.347 98.512 305.641 98.416C305.941 98.32 306.193 98.203 306.397 98.065C306.607 97.921 306.763 97.783 306.865 97.651L307.81 99.055C307.642 99.265 307.417 99.46 307.135 99.64C306.859 99.814 306.505 99.952 306.073 100.054C305.647 100.162 305.113 100.216 304.471 100.216C303.661 100.216 302.95 100.057 302.338 99.739C301.726 99.421 301.249 98.962 300.907 98.362C300.565 97.762 300.394 97.048 300.394 96.22C300.394 95.5 300.547 94.852 300.853 94.276C301.159 93.694 301.603 93.235 302.185 92.899C302.773 92.563 303.478 92.395 304.3 92.395C305.074 92.395 305.743 92.545 306.307 92.845C306.877 93.139 307.318 93.571 307.63 94.141C307.942 94.711 308.098 95.407 308.098 96.229C308.098 96.277 308.095 96.376 308.089 96.526C308.089 96.67 308.083 96.766 308.071 96.814H302.527ZM305.956 95.401C305.95 95.209 305.89 95.002 305.776 94.78C305.668 94.558 305.497 94.369 305.263 94.213C305.029 94.057 304.717 93.979 304.327 93.979C303.937 93.979 303.616 94.054 303.364 94.204C303.118 94.354 302.932 94.54 302.806 94.762C302.68 94.978 302.608 95.191 302.59 95.401H305.956ZM315.447 100V98.713C315.393 98.845 315.255 99.031 315.033 99.271C314.811 99.511 314.511 99.73 314.133 99.928C313.761 100.12 313.323 100.216 312.819 100.216C312.111 100.216 311.484 100.048 310.938 99.712C310.392 99.37 309.963 98.905 309.651 98.317C309.345 97.723 309.192 97.054 309.192 96.31C309.192 95.566 309.345 94.9 309.651 94.312C309.963 93.718 310.392 93.25 310.938 92.908C311.484 92.566 312.111 92.395 312.819 92.395C313.311 92.395 313.737 92.479 314.097 92.647C314.463 92.809 314.757 93.001 314.979 93.223C315.207 93.439 315.354 93.634 315.42 93.808V92.611H317.688V100H315.447ZM311.433 96.31C311.433 96.724 311.526 97.09 311.712 97.408C311.898 97.72 312.144 97.963 312.45 98.137C312.756 98.311 313.089 98.398 313.449 98.398C313.827 98.398 314.163 98.311 314.457 98.137C314.751 97.957 314.982 97.711 315.15 97.399C315.324 97.081 315.411 96.718 315.411 96.31C315.411 95.902 315.324 95.542 315.15 95.23C314.982 94.912 314.751 94.663 314.457 94.483C314.163 94.303 313.827 94.213 313.449 94.213C313.089 94.213 312.756 94.303 312.45 94.483C312.144 94.657 311.898 94.903 311.712 95.221C311.526 95.533 311.433 95.896 311.433 96.31ZM324.28 92.395C324.784 92.395 325.276 92.5 325.756 92.71C326.236 92.914 326.629 93.241 326.935 93.691C327.247 94.141 327.403 94.729 327.403 95.455V100H325.108V95.851C325.108 95.245 324.964 94.795 324.676 94.501C324.394 94.207 324.022 94.06 323.56 94.06C323.26 94.06 322.972 94.144 322.696 94.312C322.426 94.474 322.204 94.702 322.03 94.996C321.862 95.284 321.778 95.614 321.778 95.986V100H319.492V92.611H321.778V93.79C321.844 93.586 321.994 93.376 322.228 93.16C322.462 92.944 322.759 92.764 323.119 92.62C323.479 92.47 323.866 92.395 324.28 92.395ZM332.285 92.395C332.729 92.395 333.14 92.437 333.518 92.521C333.896 92.599 334.214 92.689 334.472 92.791C334.736 92.893 334.91 92.98 334.994 93.052L334.211 94.429C334.091 94.333 333.875 94.219 333.563 94.087C333.257 93.955 332.915 93.889 332.537 93.889C332.195 93.889 331.907 93.949 331.673 94.069C331.439 94.183 331.322 94.357 331.322 94.591C331.322 94.825 331.448 95.011 331.7 95.149C331.952 95.287 332.303 95.407 332.753 95.509C333.131 95.587 333.503 95.707 333.869 95.869C334.235 96.025 334.538 96.253 334.778 96.553C335.018 96.847 335.138 97.24 335.138 97.732C335.138 98.218 335.033 98.623 334.823 98.947C334.619 99.265 334.346 99.517 334.004 99.703C333.662 99.889 333.287 100.021 332.879 100.099C332.471 100.177 332.066 100.216 331.664 100.216C331.142 100.216 330.683 100.165 330.287 100.063C329.891 99.967 329.564 99.856 329.306 99.73C329.054 99.598 328.874 99.487 328.766 99.397L329.549 97.867C329.705 98.005 329.96 98.158 330.314 98.326C330.674 98.488 331.061 98.569 331.475 98.569C331.907 98.569 332.246 98.494 332.492 98.344C332.744 98.194 332.87 97.993 332.87 97.741C332.87 97.555 332.81 97.405 332.69 97.291C332.57 97.171 332.405 97.072 332.195 96.994C331.985 96.916 331.739 96.847 331.457 96.787C331.199 96.733 330.935 96.655 330.665 96.553C330.395 96.445 330.143 96.304 329.909 96.13C329.675 95.956 329.486 95.74 329.342 95.482C329.198 95.218 329.126 94.903 329.126 94.537C329.126 94.069 329.276 93.679 329.576 93.367C329.876 93.049 330.266 92.809 330.746 92.647C331.226 92.479 331.739 92.395 332.285 92.395Z" fill="#F7D5A0"/>
</g>
<defs>
<clipPath id="clip0_1093_3504">
<rect width="336" height="108" fill="white"/>
</clipPath>
</defs>
</svg>
