<svg width="419" height="48" viewBox="0 0 419 48" fill="none" xmlns="http://www.w3.org/2000/svg">
<g clip-path="url(#clip0_1093_3505)">
<path d="M419 16H276" stroke="#F7D5A0" stroke-width="2"/>
<path d="M0.81 4.12H5.382C6.054 4.12 6.657 4.261 7.191 4.543C7.725 4.819 8.148 5.224 8.46 5.758C8.778 6.286 8.937 6.925 8.937 7.675C8.937 8.419 8.799 9.031 8.523 9.511C8.247 9.985 7.914 10.342 7.524 10.582C7.14 10.822 6.783 10.96 6.453 10.996L9.369 16H6.831L4.194 11.167H3.051V16H0.81V4.12ZM3.051 9.583H4.581C5.151 9.583 5.634 9.442 6.03 9.16C6.432 8.878 6.633 8.404 6.633 7.738C6.633 7.072 6.435 6.604 6.039 6.334C5.643 6.058 5.163 5.92 4.599 5.92H3.051V9.583ZM14.8437 16.216C14.0577 16.216 13.3557 16.048 12.7377 15.712C12.1257 15.376 11.6457 14.917 11.2977 14.335C10.9497 13.747 10.7757 13.078 10.7757 12.328C10.7757 11.578 10.9497 10.909 11.2977 10.321C11.6457 9.727 12.1257 9.259 12.7377 8.917C13.3557 8.569 14.0577 8.395 14.8437 8.395C15.6357 8.395 16.3347 8.569 16.9407 8.917C17.5467 9.259 18.0207 9.727 18.3627 10.321C18.7047 10.909 18.8757 11.578 18.8757 12.328C18.8757 13.078 18.7047 13.747 18.3627 14.335C18.0207 14.917 17.5467 15.376 16.9407 15.712C16.3347 16.048 15.6357 16.216 14.8437 16.216ZM14.8437 14.317C15.2217 14.317 15.5487 14.233 15.8247 14.065C16.1067 13.891 16.3227 13.654 16.4727 13.354C16.6287 13.048 16.7067 12.703 16.7067 12.319C16.7067 11.935 16.6287 11.59 16.4727 11.284C16.3227 10.978 16.1067 10.738 15.8247 10.564C15.5487 10.384 15.2217 10.294 14.8437 10.294C14.4657 10.294 14.1357 10.384 13.8537 10.564C13.5777 10.738 13.3617 10.978 13.2057 11.284C13.0497 11.59 12.9717 11.935 12.9717 12.319C12.9717 12.703 13.0497 13.048 13.2057 13.354C13.3617 13.654 13.5777 13.891 13.8537 14.065C14.1357 14.233 14.4657 14.317 14.8437 14.317ZM26.224 16V14.713C26.17 14.845 26.032 15.031 25.81 15.271C25.588 15.511 25.288 15.73 24.91 15.928C24.538 16.12 24.1 16.216 23.596 16.216C22.888 16.216 22.261 16.048 21.715 15.712C21.169 15.37 20.74 14.905 20.428 14.317C20.122 13.723 19.969 13.054 19.969 12.31C19.969 11.566 20.122 10.9 20.428 10.312C20.74 9.718 21.169 9.25 21.715 8.908C22.261 8.566 22.888 8.395 23.596 8.395C24.088 8.395 24.514 8.479 24.874 8.647C25.24 8.809 25.534 9.001 25.756 9.223C25.984 9.439 26.131 9.634 26.197 9.808V8.611H28.465V16H26.224ZM22.21 12.31C22.21 12.724 22.303 13.09 22.489 13.408C22.675 13.72 22.921 13.963 23.227 14.137C23.533 14.311 23.866 14.398 24.226 14.398C24.604 14.398 24.94 14.311 25.234 14.137C25.528 13.957 25.759 13.711 25.927 13.399C26.101 13.081 26.188 12.718 26.188 12.31C26.188 11.902 26.101 11.542 25.927 11.23C25.759 10.912 25.528 10.663 25.234 10.483C24.94 10.303 24.604 10.213 24.226 10.213C23.866 10.213 23.533 10.303 23.227 10.483C22.921 10.657 22.675 10.903 22.489 11.221C22.303 11.533 22.21 11.896 22.21 12.31ZM33.4467 8.395C33.8907 8.395 34.3017 8.437 34.6797 8.521C35.0577 8.599 35.3757 8.689 35.6337 8.791C35.8977 8.893 36.0717 8.98 36.1557 9.052L35.3727 10.429C35.2527 10.333 35.0367 10.219 34.7247 10.087C34.4187 9.955 34.0767 9.889 33.6987 9.889C33.3567 9.889 33.0687 9.949 32.8347 10.069C32.6007 10.183 32.4837 10.357 32.4837 10.591C32.4837 10.825 32.6097 11.011 32.8617 11.149C33.1137 11.287 33.4647 11.407 33.9147 11.509C34.2927 11.587 34.6647 11.707 35.0307 11.869C35.3967 12.025 35.6997 12.253 35.9397 12.553C36.1797 12.847 36.2997 13.24 36.2997 13.732C36.2997 14.218 36.1947 14.623 35.9847 14.947C35.7807 15.265 35.5077 15.517 35.1657 15.703C34.8237 15.889 34.4487 16.021 34.0407 16.099C33.6327 16.177 33.2277 16.216 32.8257 16.216C32.3037 16.216 31.8447 16.165 31.4487 16.063C31.0527 15.967 30.7257 15.856 30.4677 15.73C30.2157 15.598 30.0357 15.487 29.9277 15.397L30.7107 13.867C30.8667 14.005 31.1217 14.158 31.4757 14.326C31.8357 14.488 32.2227 14.569 32.6367 14.569C33.0687 14.569 33.4077 14.494 33.6537 14.344C33.9057 14.194 34.0317 13.993 34.0317 13.741C34.0317 13.555 33.9717 13.405 33.8517 13.291C33.7317 13.171 33.5667 13.072 33.3567 12.994C33.1467 12.916 32.9007 12.847 32.6187 12.787C32.3607 12.733 32.0967 12.655 31.8267 12.553C31.5567 12.445 31.3047 12.304 31.0707 12.13C30.8367 11.956 30.6477 11.74 30.5037 11.482C30.3597 11.218 30.2877 10.903 30.2877 10.537C30.2877 10.069 30.4377 9.679 30.7377 9.367C31.0377 9.049 31.4277 8.809 31.9077 8.647C32.3877 8.479 32.9007 8.395 33.4467 8.395ZM37.1472 8.611H38.4792V5.578H40.7472V8.611H42.4932V10.51H40.7472V13.183C40.7472 13.537 40.8042 13.813 40.9182 14.011C41.0322 14.203 41.2122 14.299 41.4582 14.299C41.6442 14.299 41.7972 14.263 41.9172 14.191C42.0372 14.113 42.1092 14.059 42.1332 14.029L42.9432 15.667C42.9072 15.703 42.7902 15.766 42.5922 15.856C42.4002 15.946 42.1512 16.027 41.8452 16.099C41.5452 16.177 41.2062 16.216 40.8282 16.216C40.1502 16.216 39.5892 16.021 39.1452 15.631C38.7012 15.235 38.4792 14.623 38.4792 13.795V10.51H37.1472V8.611ZM45.7888 12.814C45.8068 13.15 45.8968 13.45 46.0588 13.714C46.2208 13.978 46.4548 14.185 46.7608 14.335C47.0728 14.485 47.4448 14.56 47.8768 14.56C48.2668 14.56 48.6088 14.512 48.9028 14.416C49.2028 14.32 49.4548 14.203 49.6588 14.065C49.8688 13.921 50.0248 13.783 50.1268 13.651L51.0718 15.055C50.9038 15.265 50.6788 15.46 50.3968 15.64C50.1208 15.814 49.7668 15.952 49.3348 16.054C48.9088 16.162 48.3748 16.216 47.7328 16.216C46.9228 16.216 46.2118 16.057 45.5998 15.739C44.9878 15.421 44.5108 14.962 44.1688 14.362C43.8268 13.762 43.6558 13.048 43.6558 12.22C43.6558 11.5 43.8088 10.852 44.1148 10.276C44.4208 9.694 44.8648 9.235 45.4468 8.899C46.0348 8.563 46.7398 8.395 47.5618 8.395C48.3358 8.395 49.0048 8.545 49.5688 8.845C50.1388 9.139 50.5798 9.571 50.8918 10.141C51.2038 10.711 51.3598 11.407 51.3598 12.229C51.3598 12.277 51.3568 12.376 51.3508 12.526C51.3508 12.67 51.3448 12.766 51.3328 12.814H45.7888ZM49.2178 11.401C49.2118 11.209 49.1518 11.002 49.0378 10.78C48.9298 10.558 48.7588 10.369 48.5248 10.213C48.2908 10.057 47.9788 9.979 47.5888 9.979C47.1988 9.979 46.8778 10.054 46.6258 10.204C46.3798 10.354 46.1938 10.54 46.0678 10.762C45.9418 10.978 45.8698 11.191 45.8518 11.401H49.2178ZM56.0984 16.216C55.3964 16.216 54.7784 16.048 54.2444 15.712C53.7164 15.37 53.3024 14.905 53.0024 14.317C52.7084 13.723 52.5614 13.054 52.5614 12.31C52.5614 11.566 52.7084 10.9 53.0024 10.312C53.3024 9.718 53.7164 9.25 54.2444 8.908C54.7784 8.566 55.3964 8.395 56.0984 8.395C56.5964 8.395 57.0374 8.476 57.4214 8.638C57.8114 8.8 58.1234 8.992 58.3574 9.214C58.5914 9.436 58.7294 9.634 58.7714 9.808V3.616H61.0664V16H58.7984V14.713C58.7024 14.923 58.5254 15.145 58.2674 15.379C58.0094 15.613 57.6944 15.811 57.3224 15.973C56.9504 16.135 56.5424 16.216 56.0984 16.216ZM56.7464 14.398C57.1304 14.398 57.4754 14.311 57.7814 14.137C58.0874 13.957 58.3274 13.711 58.5014 13.399C58.6814 13.081 58.7714 12.718 58.7714 12.31C58.7714 11.902 58.6814 11.542 58.5014 11.23C58.3274 10.912 58.0874 10.663 57.7814 10.483C57.4754 10.303 57.1304 10.213 56.7464 10.213C56.3924 10.213 56.0684 10.303 55.7744 10.483C55.4804 10.657 55.2434 10.903 55.0634 11.221C54.8894 11.533 54.8024 11.896 54.8024 12.31C54.8024 12.724 54.8894 13.09 55.0634 13.408C55.2434 13.72 55.4804 13.963 55.7744 14.137C56.0684 14.311 56.3924 14.398 56.7464 14.398ZM67.4872 16V8.611H69.7642V16H67.4872ZM68.6572 6.703C68.2792 6.703 67.9582 6.571 67.6942 6.307C67.4362 6.043 67.3072 5.728 67.3072 5.362C67.3072 4.996 67.4392 4.678 67.7032 4.408C67.9672 4.138 68.2852 4.003 68.6572 4.003C68.9032 4.003 69.1282 4.066 69.3322 4.192C69.5362 4.312 69.7012 4.474 69.8272 4.678C69.9532 4.882 70.0162 5.11 70.0162 5.362C70.0162 5.728 69.8812 6.043 69.6112 6.307C69.3472 6.571 69.0292 6.703 68.6572 6.703ZM76.5596 8.395C77.0636 8.395 77.5556 8.5 78.0356 8.71C78.5156 8.914 78.9086 9.241 79.2146 9.691C79.5266 10.141 79.6826 10.729 79.6826 11.455V16H77.3876V11.851C77.3876 11.245 77.2436 10.795 76.9556 10.501C76.6736 10.207 76.3016 10.06 75.8396 10.06C75.5396 10.06 75.2516 10.144 74.9756 10.312C74.7056 10.474 74.4836 10.702 74.3096 10.996C74.1416 11.284 74.0576 11.614 74.0576 11.986V16H71.7716V8.611H74.0576V9.79C74.1236 9.586 74.2736 9.376 74.5076 9.16C74.7416 8.944 75.0386 8.764 75.3986 8.62C75.7586 8.47 76.1456 8.395 76.5596 8.395ZM90.2211 3.904C90.9351 3.904 91.5561 3.985 92.0841 4.147C92.6181 4.303 93.0411 4.471 93.3531 4.651C93.6711 4.831 93.8631 4.948 93.9291 5.002L92.8311 6.829C92.7351 6.751 92.5701 6.643 92.3361 6.505C92.1081 6.361 91.8321 6.235 91.5081 6.127C91.1841 6.013 90.8331 5.956 90.4551 5.956C89.9091 5.956 89.4711 6.061 89.1411 6.271C88.8171 6.475 88.6551 6.772 88.6551 7.162C88.6551 7.426 88.7421 7.663 88.9161 7.873C89.0901 8.077 89.3451 8.269 89.6811 8.449C90.0231 8.629 90.4401 8.818 90.9321 9.016C91.3641 9.184 91.7751 9.379 92.1651 9.601C92.5611 9.823 92.9121 10.084 93.2181 10.384C93.5301 10.684 93.7761 11.032 93.9561 11.428C94.1421 11.824 94.2351 12.277 94.2351 12.787C94.2351 13.357 94.1181 13.855 93.8841 14.281C93.6561 14.707 93.3381 15.064 92.9301 15.352C92.5281 15.64 92.0661 15.856 91.5441 16C91.0221 16.144 90.4731 16.216 89.8971 16.216C89.1171 16.216 88.4151 16.126 87.7911 15.946C87.1731 15.76 86.6721 15.562 86.2881 15.352C85.9041 15.142 85.6791 15.007 85.6131 14.947L86.7651 13.048C86.8371 13.102 86.9721 13.189 87.1701 13.309C87.3741 13.429 87.6201 13.552 87.9081 13.678C88.2021 13.804 88.5201 13.912 88.8621 14.002C89.2101 14.092 89.5641 14.137 89.9241 14.137C90.5721 14.137 91.0611 14.002 91.3911 13.732C91.7211 13.462 91.8861 13.111 91.8861 12.679C91.8861 12.355 91.7811 12.07 91.5711 11.824C91.3611 11.578 91.0641 11.353 90.6801 11.149C90.3021 10.939 89.8491 10.726 89.3211 10.51C88.7931 10.288 88.3011 10.03 87.8451 9.736C87.3951 9.436 87.0321 9.07 86.7561 8.638C86.4801 8.2 86.3421 7.663 86.3421 7.027C86.3421 6.397 86.5191 5.848 86.8731 5.38C87.2331 4.912 87.7071 4.549 88.2951 4.291C88.8891 4.033 89.5311 3.904 90.2211 3.904ZM105.644 8.395C106.196 8.395 106.676 8.512 107.084 8.746C107.498 8.98 107.819 9.34 108.047 9.826C108.281 10.306 108.398 10.924 108.398 11.68V16H106.148V12.049C106.148 11.425 106.055 10.939 105.869 10.591C105.689 10.243 105.344 10.069 104.834 10.069C104.546 10.069 104.282 10.147 104.042 10.303C103.802 10.453 103.61 10.675 103.466 10.969C103.328 11.263 103.259 11.623 103.259 12.049V16H101.153V12.049C101.153 11.425 101.048 10.939 100.838 10.591C100.628 10.243 100.295 10.069 99.8394 10.069C99.5454 10.069 99.2784 10.144 99.0384 10.294C98.8044 10.444 98.6184 10.666 98.4804 10.96C98.3484 11.248 98.2824 11.611 98.2824 12.049V16H96.0144V8.611H98.2824V9.691C98.3484 9.505 98.4984 9.313 98.7324 9.115C98.9724 8.917 99.2694 8.749 99.6234 8.611C99.9774 8.467 100.358 8.395 100.766 8.395C101.21 8.395 101.579 8.47 101.873 8.62C102.167 8.77 102.404 8.962 102.584 9.196C102.77 9.424 102.911 9.664 103.007 9.916C103.091 9.682 103.256 9.448 103.502 9.214C103.748 8.98 104.057 8.785 104.429 8.629C104.801 8.473 105.206 8.395 105.644 8.395ZM116.013 16V14.713C115.959 14.845 115.821 15.031 115.599 15.271C115.377 15.511 115.077 15.73 114.699 15.928C114.327 16.12 113.889 16.216 113.385 16.216C112.677 16.216 112.05 16.048 111.504 15.712C110.958 15.37 110.529 14.905 110.217 14.317C109.911 13.723 109.758 13.054 109.758 12.31C109.758 11.566 109.911 10.9 110.217 10.312C110.529 9.718 110.958 9.25 111.504 8.908C112.05 8.566 112.677 8.395 113.385 8.395C113.877 8.395 114.303 8.479 114.663 8.647C115.029 8.809 115.323 9.001 115.545 9.223C115.773 9.439 115.92 9.634 115.986 9.808V8.611H118.254V16H116.013ZM111.999 12.31C111.999 12.724 112.092 13.09 112.278 13.408C112.464 13.72 112.71 13.963 113.016 14.137C113.322 14.311 113.655 14.398 114.015 14.398C114.393 14.398 114.729 14.311 115.023 14.137C115.317 13.957 115.548 13.711 115.716 13.399C115.89 13.081 115.977 12.718 115.977 12.31C115.977 11.902 115.89 11.542 115.716 11.23C115.548 10.912 115.317 10.663 115.023 10.483C114.729 10.303 114.393 10.213 114.015 10.213C113.655 10.213 113.322 10.303 113.016 10.483C112.71 10.657 112.464 10.903 112.278 11.221C112.092 11.533 111.999 11.896 111.999 12.31ZM122.444 16H120.149V3.616H122.444V16ZM126.698 16H124.403V3.616H126.698V16ZM133.351 4.12H137.131C137.797 4.12 138.418 4.21 138.994 4.39C139.57 4.57 140.035 4.87 140.389 5.29C140.749 5.71 140.929 6.283 140.929 7.009C140.929 7.495 140.836 7.93 140.65 8.314C140.464 8.698 140.227 9.013 139.939 9.259C139.651 9.499 139.348 9.652 139.03 9.718C139.3 9.748 139.576 9.829 139.858 9.961C140.14 10.093 140.401 10.276 140.641 10.51C140.881 10.744 141.073 11.038 141.217 11.392C141.367 11.746 141.442 12.16 141.442 12.634C141.442 13.294 141.298 13.879 141.01 14.389C140.728 14.893 140.308 15.289 139.75 15.577C139.198 15.859 138.511 16 137.689 16H133.351V4.12ZM135.601 14.182H137.23C137.686 14.182 138.049 14.107 138.319 13.957C138.595 13.807 138.793 13.603 138.913 13.345C139.033 13.087 139.093 12.793 139.093 12.463C139.093 11.935 138.925 11.53 138.589 11.248C138.253 10.966 137.776 10.825 137.158 10.825H135.601V14.182ZM135.601 9.043H137.032C137.404 9.043 137.71 8.971 137.95 8.827C138.196 8.677 138.382 8.479 138.508 8.233C138.634 7.981 138.697 7.708 138.697 7.414C138.697 6.85 138.532 6.463 138.202 6.253C137.878 6.043 137.437 5.938 136.879 5.938H135.601V9.043ZM148.99 16V14.713C148.936 14.845 148.798 15.031 148.576 15.271C148.354 15.511 148.054 15.73 147.676 15.928C147.304 16.12 146.866 16.216 146.362 16.216C145.654 16.216 145.027 16.048 144.481 15.712C143.935 15.37 143.506 14.905 143.194 14.317C142.888 13.723 142.735 13.054 142.735 12.31C142.735 11.566 142.888 10.9 143.194 10.312C143.506 9.718 143.935 9.25 144.481 8.908C145.027 8.566 145.654 8.395 146.362 8.395C146.854 8.395 147.28 8.479 147.64 8.647C148.006 8.809 148.3 9.001 148.522 9.223C148.75 9.439 148.897 9.634 148.963 9.808V8.611H151.231V16H148.99ZM144.976 12.31C144.976 12.724 145.069 13.09 145.255 13.408C145.441 13.72 145.687 13.963 145.993 14.137C146.299 14.311 146.632 14.398 146.992 14.398C147.37 14.398 147.706 14.311 148 14.137C148.294 13.957 148.525 13.711 148.693 13.399C148.867 13.081 148.954 12.718 148.954 12.31C148.954 11.902 148.867 11.542 148.693 11.23C148.525 10.912 148.294 10.663 148 10.483C147.706 10.303 147.37 10.213 146.992 10.213C146.632 10.213 146.299 10.303 145.993 10.483C145.687 10.657 145.441 10.903 145.255 11.221C145.069 11.533 144.976 11.896 144.976 12.31ZM152.477 8.611H153.809V5.578H156.077V8.611H157.823V10.51H156.077V13.183C156.077 13.537 156.134 13.813 156.248 14.011C156.362 14.203 156.542 14.299 156.788 14.299C156.974 14.299 157.127 14.263 157.247 14.191C157.367 14.113 157.439 14.059 157.463 14.029L158.273 15.667C158.237 15.703 158.12 15.766 157.922 15.856C157.73 15.946 157.481 16.027 157.175 16.099C156.875 16.177 156.536 16.216 156.158 16.216C155.48 16.216 154.919 16.021 154.475 15.631C154.031 15.235 153.809 14.623 153.809 13.795V10.51H152.477V8.611ZM163.225 14.398C163.615 14.398 163.933 14.332 164.179 14.2C164.425 14.068 164.587 13.969 164.665 13.903L165.727 15.478C165.643 15.544 165.487 15.637 165.259 15.757C165.031 15.877 164.74 15.982 164.386 16.072C164.038 16.168 163.639 16.216 163.189 16.216C162.409 16.216 161.71 16.06 161.092 15.748C160.474 15.43 159.985 14.98 159.625 14.398C159.271 13.81 159.094 13.111 159.094 12.301C159.094 11.485 159.271 10.786 159.625 10.204C159.985 9.622 160.474 9.175 161.092 8.863C161.71 8.551 162.409 8.395 163.189 8.395C163.633 8.395 164.026 8.443 164.368 8.539C164.716 8.635 165.007 8.746 165.241 8.872C165.475 8.992 165.637 9.091 165.727 9.169L164.638 10.753C164.596 10.705 164.515 10.639 164.395 10.555C164.275 10.471 164.116 10.393 163.918 10.321C163.726 10.249 163.495 10.213 163.225 10.213C162.895 10.213 162.58 10.3 162.28 10.474C161.986 10.648 161.746 10.891 161.56 11.203C161.374 11.515 161.281 11.881 161.281 12.301C161.281 12.721 161.374 13.09 161.56 13.408C161.746 13.72 161.986 13.963 162.28 14.137C162.58 14.311 162.895 14.398 163.225 14.398ZM171.791 8.395C172.295 8.395 172.787 8.5 173.267 8.71C173.747 8.914 174.14 9.241 174.446 9.691C174.758 10.141 174.914 10.729 174.914 11.455V16H172.619V11.851C172.619 11.245 172.481 10.795 172.205 10.501C171.935 10.207 171.572 10.06 171.116 10.06C170.81 10.06 170.516 10.144 170.234 10.312C169.958 10.474 169.73 10.702 169.55 10.996C169.376 11.284 169.289 11.614 169.289 11.986V16H166.994V3.616H169.289V9.79C169.349 9.586 169.496 9.376 169.73 9.16C169.964 8.944 170.261 8.764 170.621 8.62C170.981 8.47 171.371 8.395 171.791 8.395ZM178.416 12.814C178.434 13.15 178.524 13.45 178.686 13.714C178.848 13.978 179.082 14.185 179.388 14.335C179.7 14.485 180.072 14.56 180.504 14.56C180.894 14.56 181.236 14.512 181.53 14.416C181.83 14.32 182.082 14.203 182.286 14.065C182.496 13.921 182.652 13.783 182.754 13.651L183.699 15.055C183.531 15.265 183.306 15.46 183.024 15.64C182.748 15.814 182.394 15.952 181.962 16.054C181.536 16.162 181.002 16.216 180.36 16.216C179.55 16.216 178.839 16.057 178.227 15.739C177.615 15.421 177.138 14.962 176.796 14.362C176.454 13.762 176.283 13.048 176.283 12.22C176.283 11.5 176.436 10.852 176.742 10.276C177.048 9.694 177.492 9.235 178.074 8.899C178.662 8.563 179.367 8.395 180.189 8.395C180.963 8.395 181.632 8.545 182.196 8.845C182.766 9.139 183.207 9.571 183.519 10.141C183.831 10.711 183.987 11.407 183.987 12.229C183.987 12.277 183.984 12.376 183.978 12.526C183.978 12.67 183.972 12.766 183.96 12.814H178.416ZM181.845 11.401C181.839 11.209 181.779 11.002 181.665 10.78C181.557 10.558 181.386 10.369 181.152 10.213C180.918 10.057 180.606 9.979 180.216 9.979C179.826 9.979 179.505 10.054 179.253 10.204C179.007 10.354 178.821 10.54 178.695 10.762C178.569 10.978 178.497 11.191 178.479 11.401H181.845ZM188.626 8.395C189.07 8.395 189.481 8.437 189.859 8.521C190.237 8.599 190.555 8.689 190.813 8.791C191.077 8.893 191.251 8.98 191.335 9.052L190.552 10.429C190.432 10.333 190.216 10.219 189.904 10.087C189.598 9.955 189.256 9.889 188.878 9.889C188.536 9.889 188.248 9.949 188.014 10.069C187.78 10.183 187.663 10.357 187.663 10.591C187.663 10.825 187.789 11.011 188.041 11.149C188.293 11.287 188.644 11.407 189.094 11.509C189.472 11.587 189.844 11.707 190.21 11.869C190.576 12.025 190.879 12.253 191.119 12.553C191.359 12.847 191.479 13.24 191.479 13.732C191.479 14.218 191.374 14.623 191.164 14.947C190.96 15.265 190.687 15.517 190.345 15.703C190.003 15.889 189.628 16.021 189.22 16.099C188.812 16.177 188.407 16.216 188.005 16.216C187.483 16.216 187.024 16.165 186.628 16.063C186.232 15.967 185.905 15.856 185.647 15.73C185.395 15.598 185.215 15.487 185.107 15.397L185.89 13.867C186.046 14.005 186.301 14.158 186.655 14.326C187.015 14.488 187.402 14.569 187.816 14.569C188.248 14.569 188.587 14.494 188.833 14.344C189.085 14.194 189.211 13.993 189.211 13.741C189.211 13.555 189.151 13.405 189.031 13.291C188.911 13.171 188.746 13.072 188.536 12.994C188.326 12.916 188.08 12.847 187.798 12.787C187.54 12.733 187.276 12.655 187.006 12.553C186.736 12.445 186.484 12.304 186.25 12.13C186.016 11.956 185.827 11.74 185.683 11.482C185.539 11.218 185.467 10.903 185.467 10.537C185.467 10.069 185.617 9.679 185.917 9.367C186.217 9.049 186.607 8.809 187.087 8.647C187.567 8.479 188.08 8.395 188.626 8.395ZM197.108 8.611H198.44V5.578H200.708V8.611H202.454V10.51H200.708V13.183C200.708 13.537 200.765 13.813 200.879 14.011C200.993 14.203 201.173 14.299 201.419 14.299C201.605 14.299 201.758 14.263 201.878 14.191C201.998 14.113 202.07 14.059 202.094 14.029L202.904 15.667C202.868 15.703 202.751 15.766 202.553 15.856C202.361 15.946 202.112 16.027 201.806 16.099C201.506 16.177 201.167 16.216 200.789 16.216C200.111 16.216 199.55 16.021 199.106 15.631C198.662 15.235 198.44 14.623 198.44 13.795V10.51H197.108V8.611ZM207.676 16.216C206.89 16.216 206.188 16.048 205.57 15.712C204.958 15.376 204.478 14.917 204.13 14.335C203.782 13.747 203.608 13.078 203.608 12.328C203.608 11.578 203.782 10.909 204.13 10.321C204.478 9.727 204.958 9.259 205.57 8.917C206.188 8.569 206.89 8.395 207.676 8.395C208.468 8.395 209.167 8.569 209.773 8.917C210.379 9.259 210.853 9.727 211.195 10.321C211.537 10.909 211.708 11.578 211.708 12.328C211.708 13.078 211.537 13.747 211.195 14.335C210.853 14.917 210.379 15.376 209.773 15.712C209.167 16.048 208.468 16.216 207.676 16.216ZM207.676 14.317C208.054 14.317 208.381 14.233 208.657 14.065C208.939 13.891 209.155 13.654 209.305 13.354C209.461 13.048 209.539 12.703 209.539 12.319C209.539 11.935 209.461 11.59 209.305 11.284C209.155 10.978 208.939 10.738 208.657 10.564C208.381 10.384 208.054 10.294 207.676 10.294C207.298 10.294 206.968 10.384 206.686 10.564C206.41 10.738 206.194 10.978 206.038 11.284C205.882 11.59 205.804 11.935 205.804 12.319C205.804 12.703 205.882 13.048 206.038 13.354C206.194 13.654 206.41 13.891 206.686 14.065C206.968 14.233 207.298 14.317 207.676 14.317ZM2.529 36.814C2.547 37.15 2.637 37.45 2.799 37.714C2.961 37.978 3.195 38.185 3.501 38.335C3.813 38.485 4.185 38.56 4.617 38.56C5.007 38.56 5.349 38.512 5.643 38.416C5.943 38.32 6.195 38.203 6.399 38.065C6.609 37.921 6.765 37.783 6.867 37.651L7.812 39.055C7.644 39.265 7.419 39.46 7.137 39.64C6.861 39.814 6.507 39.952 6.075 40.054C5.649 40.162 5.115 40.216 4.473 40.216C3.663 40.216 2.952 40.057 2.34 39.739C1.728 39.421 1.251 38.962 0.909 38.362C0.567 37.762 0.396 37.048 0.396 36.22C0.396 35.5 0.549 34.852 0.855 34.276C1.161 33.694 1.605 33.235 2.187 32.899C2.775 32.563 3.48 32.395 4.302 32.395C5.076 32.395 5.745 32.545 6.309 32.845C6.879 33.139 7.32 33.571 7.632 34.141C7.944 34.711 8.1 35.407 8.1 36.229C8.1 36.277 8.097 36.376 8.091 36.526C8.091 36.67 8.085 36.766 8.073 36.814H2.529ZM5.958 35.401C5.952 35.209 5.892 35.002 5.778 34.78C5.67 34.558 5.499 34.369 5.265 34.213C5.031 34.057 4.719 33.979 4.329 33.979C3.939 33.979 3.618 34.054 3.366 34.204C3.12 34.354 2.934 34.54 2.808 34.762C2.682 34.978 2.61 35.191 2.592 35.401H5.958ZM14.3506 32.395C14.8546 32.395 15.3466 32.5 15.8266 32.71C16.3066 32.914 16.6996 33.241 17.0056 33.691C17.3176 34.141 17.4736 34.729 17.4736 35.455V40H15.1786V35.851C15.1786 35.245 15.0346 34.795 14.7466 34.501C14.4646 34.207 14.0926 34.06 13.6306 34.06C13.3306 34.06 13.0426 34.144 12.7666 34.312C12.4966 34.474 12.2746 34.702 12.1006 34.996C11.9326 35.284 11.8486 35.614 11.8486 35.986V40H9.56264V32.611H11.8486V33.79C11.9146 33.586 12.0646 33.376 12.2986 33.16C12.5326 32.944 12.8296 32.764 13.1896 32.62C13.5496 32.47 13.9366 32.395 14.3506 32.395ZM22.3549 32.395C22.7989 32.395 23.2099 32.437 23.5879 32.521C23.9659 32.599 24.2839 32.689 24.5419 32.791C24.8059 32.893 24.9799 32.98 25.0639 33.052L24.2809 34.429C24.1609 34.333 23.9449 34.219 23.6329 34.087C23.3269 33.955 22.9849 33.889 22.6069 33.889C22.2649 33.889 21.9769 33.949 21.7429 34.069C21.5089 34.183 21.3919 34.357 21.3919 34.591C21.3919 34.825 21.5179 35.011 21.7699 35.149C22.0219 35.287 22.3729 35.407 22.8229 35.509C23.2009 35.587 23.5729 35.707 23.9389 35.869C24.3049 36.025 24.6079 36.253 24.8479 36.553C25.0879 36.847 25.2079 37.24 25.2079 37.732C25.2079 38.218 25.1029 38.623 24.8929 38.947C24.6889 39.265 24.4159 39.517 24.0739 39.703C23.7319 39.889 23.3569 40.021 22.9489 40.099C22.5409 40.177 22.1359 40.216 21.7339 40.216C21.2119 40.216 20.7529 40.165 20.3569 40.063C19.9609 39.967 19.6339 39.856 19.3759 39.73C19.1239 39.598 18.9439 39.487 18.8359 39.397L19.6189 37.867C19.7749 38.005 20.0299 38.158 20.3839 38.326C20.7439 38.488 21.1309 38.569 21.5449 38.569C21.9769 38.569 22.3159 38.494 22.5619 38.344C22.8139 38.194 22.9399 37.993 22.9399 37.741C22.9399 37.555 22.8799 37.405 22.7599 37.291C22.6399 37.171 22.4749 37.072 22.2649 36.994C22.0549 36.916 21.8089 36.847 21.5269 36.787C21.2689 36.733 21.0049 36.655 20.7349 36.553C20.4649 36.445 20.2129 36.304 19.9789 36.13C19.7449 35.956 19.5559 35.74 19.4119 35.482C19.2679 35.218 19.1959 34.903 19.1959 34.537C19.1959 34.069 19.3459 33.679 19.6459 33.367C19.9459 33.049 20.3359 32.809 20.8159 32.647C21.2959 32.479 21.8089 32.395 22.3549 32.395ZM28.9685 36.148C28.9685 36.808 29.1005 37.336 29.3645 37.732C29.6285 38.122 30.0545 38.317 30.6425 38.317C31.2365 38.317 31.6655 38.122 31.9295 37.732C32.1935 37.336 32.3255 36.808 32.3255 36.148V32.611H34.5755V36.409C34.5755 37.171 34.4225 37.84 34.1165 38.416C33.8105 38.986 33.3635 39.43 32.7755 39.748C32.1935 40.06 31.4825 40.216 30.6425 40.216C29.8085 40.216 29.0975 40.06 28.5095 39.748C27.9275 39.43 27.4835 38.986 27.1775 38.416C26.8715 37.84 26.7185 37.171 26.7185 36.409V32.611H28.9685V36.148ZM38.5567 40H36.2707V32.611H38.5567V33.808H38.5117C38.5537 33.664 38.6677 33.481 38.8537 33.259C39.0457 33.037 39.3097 32.839 39.6457 32.665C39.9817 32.485 40.3867 32.395 40.8607 32.395C41.2027 32.395 41.5117 32.446 41.7877 32.548C42.0697 32.644 42.2707 32.74 42.3907 32.836L41.4907 34.708C41.4127 34.612 41.2657 34.513 41.0497 34.411C40.8397 34.309 40.5757 34.258 40.2577 34.258C39.8797 34.258 39.5647 34.363 39.3127 34.573C39.0607 34.777 38.8717 35.029 38.7457 35.329C38.6197 35.623 38.5567 35.899 38.5567 36.157V40ZM44.7517 36.814C44.7697 37.15 44.8597 37.45 45.0217 37.714C45.1837 37.978 45.4177 38.185 45.7237 38.335C46.0357 38.485 46.4077 38.56 46.8397 38.56C47.2297 38.56 47.5717 38.512 47.8657 38.416C48.1657 38.32 48.4177 38.203 48.6217 38.065C48.8317 37.921 48.9877 37.783 49.0897 37.651L50.0347 39.055C49.8667 39.265 49.6417 39.46 49.3597 39.64C49.0837 39.814 48.7297 39.952 48.2977 40.054C47.8717 40.162 47.3377 40.216 46.6957 40.216C45.8857 40.216 45.1747 40.057 44.5627 39.739C43.9507 39.421 43.4737 38.962 43.1317 38.362C42.7897 37.762 42.6187 37.048 42.6187 36.22C42.6187 35.5 42.7717 34.852 43.0777 34.276C43.3837 33.694 43.8277 33.235 44.4097 32.899C44.9977 32.563 45.7027 32.395 46.5247 32.395C47.2987 32.395 47.9677 32.545 48.5317 32.845C49.1017 33.139 49.5427 33.571 49.8547 34.141C50.1667 34.711 50.3227 35.407 50.3227 36.229C50.3227 36.277 50.3197 36.376 50.3137 36.526C50.3137 36.67 50.3077 36.766 50.2957 36.814H44.7517ZM48.1807 35.401C48.1747 35.209 48.1147 35.002 48.0007 34.78C47.8927 34.558 47.7217 34.369 47.4877 34.213C47.2537 34.057 46.9417 33.979 46.5517 33.979C46.1617 33.979 45.8407 34.054 45.5887 34.204C45.3427 34.354 45.1567 34.54 45.0307 34.762C44.9047 34.978 44.8327 35.191 44.8147 35.401H48.1807ZM60.3225 38.398C60.7125 38.398 61.0305 38.332 61.2765 38.2C61.5225 38.068 61.6845 37.969 61.7625 37.903L62.8245 39.478C62.7405 39.544 62.5845 39.637 62.3565 39.757C62.1285 39.877 61.8375 39.982 61.4835 40.072C61.1355 40.168 60.7365 40.216 60.2865 40.216C59.5065 40.216 58.8075 40.06 58.1895 39.748C57.5715 39.43 57.0825 38.98 56.7225 38.398C56.3685 37.81 56.1915 37.111 56.1915 36.301C56.1915 35.485 56.3685 34.786 56.7225 34.204C57.0825 33.622 57.5715 33.175 58.1895 32.863C58.8075 32.551 59.5065 32.395 60.2865 32.395C60.7305 32.395 61.1235 32.443 61.4655 32.539C61.8135 32.635 62.1045 32.746 62.3385 32.872C62.5725 32.992 62.7345 33.091 62.8245 33.169L61.7355 34.753C61.6935 34.705 61.6125 34.639 61.4925 34.555C61.3725 34.471 61.2135 34.393 61.0155 34.321C60.8235 34.249 60.5925 34.213 60.3225 34.213C59.9925 34.213 59.6775 34.3 59.3775 34.474C59.0835 34.648 58.8435 34.891 58.6575 35.203C58.4715 35.515 58.3785 35.881 58.3785 36.301C58.3785 36.721 58.4715 37.09 58.6575 37.408C58.8435 37.72 59.0835 37.963 59.3775 38.137C59.6775 38.311 59.9925 38.398 60.3225 38.398ZM67.7363 40.216C66.9503 40.216 66.2483 40.048 65.6303 39.712C65.0183 39.376 64.5383 38.917 64.1903 38.335C63.8423 37.747 63.6683 37.078 63.6683 36.328C63.6683 35.578 63.8423 34.909 64.1903 34.321C64.5383 33.727 65.0183 33.259 65.6303 32.917C66.2483 32.569 66.9503 32.395 67.7363 32.395C68.5283 32.395 69.2273 32.569 69.8333 32.917C70.4393 33.259 70.9133 33.727 71.2553 34.321C71.5973 34.909 71.7683 35.578 71.7683 36.328C71.7683 37.078 71.5973 37.747 71.2553 38.335C70.9133 38.917 70.4393 39.376 69.8333 39.712C69.2273 40.048 68.5283 40.216 67.7363 40.216ZM67.7363 38.317C68.1143 38.317 68.4413 38.233 68.7173 38.065C68.9993 37.891 69.2153 37.654 69.3653 37.354C69.5213 37.048 69.5993 36.703 69.5993 36.319C69.5993 35.935 69.5213 35.59 69.3653 35.284C69.2153 34.978 68.9993 34.738 68.7173 34.564C68.4413 34.384 68.1143 34.294 67.7363 34.294C67.3583 34.294 67.0283 34.384 66.7463 34.564C66.4703 34.738 66.2543 34.978 66.0983 35.284C65.9423 35.59 65.8643 35.935 65.8643 36.319C65.8643 36.703 65.9423 37.048 66.0983 37.354C66.2543 37.654 66.4703 37.891 66.7463 38.065C67.0283 38.233 67.3583 38.317 67.7363 38.317ZM78.0186 32.395C78.5226 32.395 79.0146 32.5 79.4946 32.71C79.9746 32.914 80.3676 33.241 80.6736 33.691C80.9856 34.141 81.1416 34.729 81.1416 35.455V40H78.8466V35.851C78.8466 35.245 78.7026 34.795 78.4146 34.501C78.1326 34.207 77.7606 34.06 77.2986 34.06C76.9986 34.06 76.7106 34.144 76.4346 34.312C76.1646 34.474 75.9426 34.702 75.7686 34.996C75.6006 35.284 75.5166 35.614 75.5166 35.986V40H73.2306V32.611H75.5166V33.79C75.5826 33.586 75.7326 33.376 75.9666 33.16C76.2006 32.944 76.4976 32.764 76.8576 32.62C77.2176 32.47 77.6046 32.395 78.0186 32.395ZM86.0228 32.395C86.4668 32.395 86.8778 32.437 87.2558 32.521C87.6338 32.599 87.9518 32.689 88.2098 32.791C88.4738 32.893 88.6478 32.98 88.7318 33.052L87.9488 34.429C87.8288 34.333 87.6128 34.219 87.3008 34.087C86.9948 33.955 86.6528 33.889 86.2748 33.889C85.9328 33.889 85.6448 33.949 85.4108 34.069C85.1768 34.183 85.0598 34.357 85.0598 34.591C85.0598 34.825 85.1858 35.011 85.4378 35.149C85.6898 35.287 86.0408 35.407 86.4908 35.509C86.8688 35.587 87.2408 35.707 87.6068 35.869C87.9728 36.025 88.2758 36.253 88.5158 36.553C88.7558 36.847 88.8758 37.24 88.8758 37.732C88.8758 38.218 88.7708 38.623 88.5608 38.947C88.3568 39.265 88.0838 39.517 87.7418 39.703C87.3998 39.889 87.0248 40.021 86.6168 40.099C86.2088 40.177 85.8038 40.216 85.4018 40.216C84.8798 40.216 84.4208 40.165 84.0248 40.063C83.6288 39.967 83.3018 39.856 83.0438 39.73C82.7918 39.598 82.6118 39.487 82.5038 39.397L83.2868 37.867C83.4428 38.005 83.6978 38.158 84.0518 38.326C84.4118 38.488 84.7988 38.569 85.2128 38.569C85.6448 38.569 85.9838 38.494 86.2298 38.344C86.4818 38.194 86.6078 37.993 86.6078 37.741C86.6078 37.555 86.5478 37.405 86.4278 37.291C86.3078 37.171 86.1428 37.072 85.9328 36.994C85.7228 36.916 85.4768 36.847 85.1948 36.787C84.9368 36.733 84.6728 36.655 84.4028 36.553C84.1328 36.445 83.8808 36.304 83.6468 36.13C83.4128 35.956 83.2238 35.74 83.0798 35.482C82.9358 35.218 82.8638 34.903 82.8638 34.537C82.8638 34.069 83.0138 33.679 83.3138 33.367C83.6138 33.049 84.0038 32.809 84.4838 32.647C84.9638 32.479 85.4768 32.395 86.0228 32.395ZM90.6024 40V32.611H92.8794V40H90.6024ZM91.7724 30.703C91.3944 30.703 91.0734 30.571 90.8094 30.307C90.5514 30.043 90.4224 29.728 90.4224 29.362C90.4224 28.996 90.5544 28.678 90.8184 28.408C91.0824 28.138 91.4004 28.003 91.7724 28.003C92.0184 28.003 92.2434 28.066 92.4474 28.192C92.6514 28.312 92.8164 28.474 92.9424 28.678C93.0684 28.882 93.1314 29.11 93.1314 29.362C93.1314 29.728 92.9964 30.043 92.7264 30.307C92.4624 30.571 92.1444 30.703 91.7724 30.703ZM98.0639 32.395C98.5079 32.395 98.9189 32.437 99.2969 32.521C99.6749 32.599 99.9929 32.689 100.251 32.791C100.515 32.893 100.689 32.98 100.773 33.052L99.9899 34.429C99.8699 34.333 99.6539 34.219 99.3419 34.087C99.0359 33.955 98.6939 33.889 98.3159 33.889C97.9739 33.889 97.6859 33.949 97.4519 34.069C97.2179 34.183 97.1009 34.357 97.1009 34.591C97.1009 34.825 97.2269 35.011 97.4789 35.149C97.7309 35.287 98.0819 35.407 98.5319 35.509C98.9099 35.587 99.2819 35.707 99.6479 35.869C100.014 36.025 100.317 36.253 100.557 36.553C100.797 36.847 100.917 37.24 100.917 37.732C100.917 38.218 100.812 38.623 100.602 38.947C100.398 39.265 100.125 39.517 99.7829 39.703C99.4409 39.889 99.0659 40.021 98.6579 40.099C98.2499 40.177 97.8449 40.216 97.4429 40.216C96.9209 40.216 96.4619 40.165 96.0659 40.063C95.6699 39.967 95.3429 39.856 95.0849 39.73C94.8329 39.598 94.6529 39.487 94.5449 39.397L95.3279 37.867C95.4839 38.005 95.7389 38.158 96.0929 38.326C96.4529 38.488 96.8399 38.569 97.2539 38.569C97.6859 38.569 98.0249 38.494 98.2709 38.344C98.5229 38.194 98.6489 37.993 98.6489 37.741C98.6489 37.555 98.5889 37.405 98.4689 37.291C98.3489 37.171 98.1839 37.072 97.9739 36.994C97.7639 36.916 97.5179 36.847 97.2359 36.787C96.9779 36.733 96.7139 36.655 96.4439 36.553C96.1739 36.445 95.9219 36.304 95.6879 36.13C95.4539 35.956 95.2649 35.74 95.1209 35.482C94.9769 35.218 94.9049 34.903 94.9049 34.537C94.9049 34.069 95.0549 33.679 95.3549 33.367C95.6549 33.049 96.0449 32.809 96.5249 32.647C97.0049 32.479 97.5179 32.395 98.0639 32.395ZM101.764 32.611H103.096V29.578H105.364V32.611H107.11V34.51H105.364V37.183C105.364 37.537 105.421 37.813 105.535 38.011C105.649 38.203 105.829 38.299 106.075 38.299C106.261 38.299 106.414 38.263 106.534 38.191C106.654 38.113 106.726 38.059 106.75 38.029L107.56 39.667C107.524 39.703 107.407 39.766 107.209 39.856C107.017 39.946 106.768 40.027 106.462 40.099C106.162 40.177 105.823 40.216 105.445 40.216C104.767 40.216 104.206 40.021 103.762 39.631C103.318 39.235 103.096 38.623 103.096 37.795V34.51H101.764V32.611ZM110.406 36.814C110.424 37.15 110.514 37.45 110.676 37.714C110.838 37.978 111.072 38.185 111.378 38.335C111.69 38.485 112.062 38.56 112.494 38.56C112.884 38.56 113.226 38.512 113.52 38.416C113.82 38.32 114.072 38.203 114.276 38.065C114.486 37.921 114.642 37.783 114.744 37.651L115.689 39.055C115.521 39.265 115.296 39.46 115.014 39.64C114.738 39.814 114.384 39.952 113.952 40.054C113.526 40.162 112.992 40.216 112.35 40.216C111.54 40.216 110.829 40.057 110.217 39.739C109.605 39.421 109.128 38.962 108.786 38.362C108.444 37.762 108.273 37.048 108.273 36.22C108.273 35.5 108.426 34.852 108.732 34.276C109.038 33.694 109.482 33.235 110.064 32.899C110.652 32.563 111.357 32.395 112.179 32.395C112.953 32.395 113.622 32.545 114.186 32.845C114.756 33.139 115.197 33.571 115.509 34.141C115.821 34.711 115.977 35.407 115.977 36.229C115.977 36.277 115.974 36.376 115.968 36.526C115.968 36.67 115.962 36.766 115.95 36.814H110.406ZM113.835 35.401C113.829 35.209 113.769 35.002 113.655 34.78C113.547 34.558 113.376 34.369 113.142 34.213C112.908 34.057 112.596 33.979 112.206 33.979C111.816 33.979 111.495 34.054 111.243 34.204C110.997 34.354 110.811 34.54 110.685 34.762C110.559 34.978 110.487 35.191 110.469 35.401H113.835ZM122.228 32.395C122.732 32.395 123.224 32.5 123.704 32.71C124.184 32.914 124.577 33.241 124.883 33.691C125.195 34.141 125.351 34.729 125.351 35.455V40H123.056V35.851C123.056 35.245 122.912 34.795 122.624 34.501C122.342 34.207 121.97 34.06 121.508 34.06C121.208 34.06 120.92 34.144 120.644 34.312C120.374 34.474 120.152 34.702 119.978 34.996C119.81 35.284 119.726 35.614 119.726 35.986V40H117.44V32.611H119.726V33.79C119.792 33.586 119.942 33.376 120.176 33.16C120.41 32.944 120.707 32.764 121.067 32.62C121.427 32.47 121.814 32.395 122.228 32.395ZM126.497 32.611H127.829V29.578H130.097V32.611H131.843V34.51H130.097V37.183C130.097 37.537 130.154 37.813 130.268 38.011C130.382 38.203 130.562 38.299 130.808 38.299C130.994 38.299 131.147 38.263 131.267 38.191C131.387 38.113 131.459 38.059 131.483 38.029L132.293 39.667C132.257 39.703 132.14 39.766 131.942 39.856C131.75 39.946 131.501 40.027 131.195 40.099C130.895 40.177 130.556 40.216 130.178 40.216C129.5 40.216 128.939 40.021 128.495 39.631C128.051 39.235 127.829 38.623 127.829 37.795V34.51H126.497V32.611ZM137.484 32.611H138.816V30.604C138.816 29.872 138.96 29.272 139.248 28.804C139.536 28.33 139.908 27.979 140.364 27.751C140.82 27.517 141.291 27.4 141.777 27.4C142.371 27.4 142.827 27.481 143.145 27.643C143.463 27.805 143.658 27.922 143.73 27.994L142.848 29.686C142.818 29.644 142.734 29.578 142.596 29.488C142.464 29.392 142.287 29.344 142.065 29.344C141.909 29.344 141.756 29.383 141.606 29.461C141.456 29.539 141.333 29.683 141.237 29.893C141.141 30.103 141.093 30.412 141.093 30.82V32.611H143.028V34.51H141.093V40H138.816V34.51H137.484V32.611ZM146.583 40H144.288V27.616H146.583V40ZM154.333 40V38.713C154.279 38.845 154.141 39.031 153.919 39.271C153.697 39.511 153.397 39.73 153.019 39.928C152.647 40.12 152.209 40.216 151.705 40.216C150.997 40.216 150.37 40.048 149.824 39.712C149.278 39.37 148.849 38.905 148.537 38.317C148.231 37.723 148.078 37.054 148.078 36.31C148.078 35.566 148.231 34.9 148.537 34.312C148.849 33.718 149.278 33.25 149.824 32.908C150.37 32.566 150.997 32.395 151.705 32.395C152.197 32.395 152.623 32.479 152.983 32.647C153.349 32.809 153.643 33.001 153.865 33.223C154.093 33.439 154.24 33.634 154.306 33.808V32.611H156.574V40H154.333ZM150.319 36.31C150.319 36.724 150.412 37.09 150.598 37.408C150.784 37.72 151.03 37.963 151.336 38.137C151.642 38.311 151.975 38.398 152.335 38.398C152.713 38.398 153.049 38.311 153.343 38.137C153.637 37.957 153.868 37.711 154.036 37.399C154.21 37.081 154.297 36.718 154.297 36.31C154.297 35.902 154.21 35.542 154.036 35.23C153.868 34.912 153.637 34.663 153.343 34.483C153.049 34.303 152.713 34.213 152.335 34.213C151.975 34.213 151.642 34.303 151.336 34.483C151.03 34.657 150.784 34.903 150.598 35.221C150.412 35.533 150.319 35.896 150.319 36.31ZM157.758 32.611H160.206L162.231 37.912L164.256 32.611H166.695L163.572 40H160.89L157.758 32.611ZM171.57 40.216C170.784 40.216 170.082 40.048 169.464 39.712C168.852 39.376 168.372 38.917 168.024 38.335C167.676 37.747 167.502 37.078 167.502 36.328C167.502 35.578 167.676 34.909 168.024 34.321C168.372 33.727 168.852 33.259 169.464 32.917C170.082 32.569 170.784 32.395 171.57 32.395C172.362 32.395 173.061 32.569 173.667 32.917C174.273 33.259 174.747 33.727 175.089 34.321C175.431 34.909 175.602 35.578 175.602 36.328C175.602 37.078 175.431 37.747 175.089 38.335C174.747 38.917 174.273 39.376 173.667 39.712C173.061 40.048 172.362 40.216 171.57 40.216ZM171.57 38.317C171.948 38.317 172.275 38.233 172.551 38.065C172.833 37.891 173.049 37.654 173.199 37.354C173.355 37.048 173.433 36.703 173.433 36.319C173.433 35.935 173.355 35.59 173.199 35.284C173.049 34.978 172.833 34.738 172.551 34.564C172.275 34.384 171.948 34.294 171.57 34.294C171.192 34.294 170.862 34.384 170.58 34.564C170.304 34.738 170.088 34.978 169.932 35.284C169.776 35.59 169.698 35.935 169.698 36.319C169.698 36.703 169.776 37.048 169.932 37.354C170.088 37.654 170.304 37.891 170.58 38.065C170.862 38.233 171.192 38.317 171.57 38.317ZM179.297 36.148C179.297 36.808 179.429 37.336 179.693 37.732C179.957 38.122 180.383 38.317 180.971 38.317C181.565 38.317 181.994 38.122 182.258 37.732C182.522 37.336 182.654 36.808 182.654 36.148V32.611H184.904V36.409C184.904 37.171 184.751 37.84 184.445 38.416C184.139 38.986 183.692 39.43 183.104 39.748C182.522 40.06 181.811 40.216 180.971 40.216C180.137 40.216 179.426 40.06 178.838 39.748C178.256 39.43 177.812 38.986 177.506 38.416C177.2 37.84 177.047 37.171 177.047 36.409V32.611H179.297V36.148ZM188.885 40H186.599V32.611H188.885V33.808H188.84C188.882 33.664 188.996 33.481 189.182 33.259C189.374 33.037 189.638 32.839 189.974 32.665C190.31 32.485 190.715 32.395 191.189 32.395C191.531 32.395 191.84 32.446 192.116 32.548C192.398 32.644 192.599 32.74 192.719 32.836L191.819 34.708C191.741 34.612 191.594 34.513 191.378 34.411C191.168 34.309 190.904 34.258 190.586 34.258C190.208 34.258 189.893 34.363 189.641 34.573C189.389 34.777 189.2 35.029 189.074 35.329C188.948 35.623 188.885 35.899 188.885 36.157V40ZM200.498 43.744H198.23V32.611H200.525V33.808C200.597 33.634 200.753 33.436 200.993 33.214C201.233 32.992 201.545 32.8 201.929 32.638C202.319 32.476 202.763 32.395 203.261 32.395C203.963 32.395 204.575 32.566 205.097 32.908C205.619 33.25 206.021 33.718 206.303 34.312C206.591 34.9 206.735 35.566 206.735 36.31C206.735 37.054 206.585 37.723 206.285 38.317C205.985 38.905 205.568 39.37 205.034 39.712C204.5 40.048 203.879 40.216 203.171 40.216C202.637 40.216 202.178 40.12 201.794 39.928C201.41 39.736 201.11 39.52 200.894 39.28C200.678 39.04 200.546 38.851 200.498 38.713V43.744ZM204.494 36.31C204.494 35.896 204.404 35.533 204.224 35.221C204.05 34.903 203.816 34.657 203.522 34.483C203.228 34.303 202.901 34.213 202.541 34.213C202.163 34.213 201.821 34.303 201.515 34.483C201.209 34.663 200.966 34.912 200.786 35.23C200.612 35.542 200.525 35.902 200.525 36.31C200.525 36.718 200.612 37.081 200.786 37.399C200.966 37.711 201.209 37.957 201.515 38.137C201.821 38.311 202.163 38.398 202.541 38.398C202.901 38.398 203.228 38.311 203.522 38.137C203.816 37.963 204.05 37.72 204.224 37.408C204.404 37.09 204.494 36.724 204.494 36.31ZM210.348 40H208.062V32.611H210.348V33.808H210.303C210.345 33.664 210.459 33.481 210.645 33.259C210.837 33.037 211.101 32.839 211.437 32.665C211.773 32.485 212.178 32.395 212.652 32.395C212.994 32.395 213.303 32.446 213.579 32.548C213.861 32.644 214.062 32.74 214.182 32.836L213.282 34.708C213.204 34.612 213.057 34.513 212.841 34.411C212.631 34.309 212.367 34.258 212.049 34.258C211.671 34.258 211.356 34.363 211.104 34.573C210.852 34.777 210.663 35.029 210.537 35.329C210.411 35.623 210.348 35.899 210.348 36.157V40ZM218.469 40.216C217.683 40.216 216.981 40.048 216.363 39.712C215.751 39.376 215.271 38.917 214.923 38.335C214.575 37.747 214.401 37.078 214.401 36.328C214.401 35.578 214.575 34.909 214.923 34.321C215.271 33.727 215.751 33.259 216.363 32.917C216.981 32.569 217.683 32.395 218.469 32.395C219.261 32.395 219.96 32.569 220.566 32.917C221.172 33.259 221.646 33.727 221.988 34.321C222.33 34.909 222.501 35.578 222.501 36.328C222.501 37.078 222.33 37.747 221.988 38.335C221.646 38.917 221.172 39.376 220.566 39.712C219.96 40.048 219.261 40.216 218.469 40.216ZM218.469 38.317C218.847 38.317 219.174 38.233 219.45 38.065C219.732 37.891 219.948 37.654 220.098 37.354C220.254 37.048 220.332 36.703 220.332 36.319C220.332 35.935 220.254 35.59 220.098 35.284C219.948 34.978 219.732 34.738 219.45 34.564C219.174 34.384 218.847 34.294 218.469 34.294C218.091 34.294 217.761 34.384 217.479 34.564C217.203 34.738 216.987 34.978 216.831 35.284C216.675 35.59 216.597 35.935 216.597 36.319C216.597 36.703 216.675 37.048 216.831 37.354C216.987 37.654 217.203 37.891 217.479 38.065C217.761 38.233 218.091 38.317 218.469 38.317ZM223.423 32.611H224.755V30.604C224.755 29.872 224.899 29.272 225.187 28.804C225.475 28.33 225.847 27.979 226.303 27.751C226.759 27.517 227.23 27.4 227.716 27.4C228.31 27.4 228.766 27.481 229.084 27.643C229.402 27.805 229.597 27.922 229.669 27.994L228.787 29.686C228.757 29.644 228.673 29.578 228.535 29.488C228.403 29.392 228.226 29.344 228.004 29.344C227.848 29.344 227.695 29.383 227.545 29.461C227.395 29.539 227.272 29.683 227.176 29.893C227.08 30.103 227.032 30.412 227.032 30.82V32.611H228.967V34.51H227.032V40H224.755V34.51H223.423V32.611ZM230.335 40V32.611H232.612V40H230.335ZM231.505 30.703C231.127 30.703 230.806 30.571 230.542 30.307C230.284 30.043 230.155 29.728 230.155 29.362C230.155 28.996 230.287 28.678 230.551 28.408C230.815 28.138 231.133 28.003 231.505 28.003C231.751 28.003 231.976 28.066 232.18 28.192C232.384 28.312 232.549 28.474 232.675 28.678C232.801 28.882 232.864 29.11 232.864 29.362C232.864 29.728 232.729 30.043 232.459 30.307C232.195 30.571 231.877 30.703 231.505 30.703ZM237.018 40H234.723V27.616H237.018V40ZM240.66 36.814C240.678 37.15 240.768 37.45 240.93 37.714C241.092 37.978 241.326 38.185 241.632 38.335C241.944 38.485 242.316 38.56 242.748 38.56C243.138 38.56 243.48 38.512 243.774 38.416C244.074 38.32 244.326 38.203 244.53 38.065C244.74 37.921 244.896 37.783 244.998 37.651L245.943 39.055C245.775 39.265 245.55 39.46 245.268 39.64C244.992 39.814 244.638 39.952 244.206 40.054C243.78 40.162 243.246 40.216 242.604 40.216C241.794 40.216 241.083 40.057 240.471 39.739C239.859 39.421 239.382 38.962 239.04 38.362C238.698 37.762 238.527 37.048 238.527 36.22C238.527 35.5 238.68 34.852 238.986 34.276C239.292 33.694 239.736 33.235 240.318 32.899C240.906 32.563 241.611 32.395 242.433 32.395C243.207 32.395 243.876 32.545 244.44 32.845C245.01 33.139 245.451 33.571 245.763 34.141C246.075 34.711 246.231 35.407 246.231 36.229C246.231 36.277 246.228 36.376 246.222 36.526C246.222 36.67 246.216 36.766 246.204 36.814H240.66ZM244.089 35.401C244.083 35.209 244.023 35.002 243.909 34.78C243.801 34.558 243.63 34.369 243.396 34.213C243.162 34.057 242.85 33.979 242.46 33.979C242.07 33.979 241.749 34.054 241.497 34.204C241.251 34.354 241.065 34.54 240.939 34.762C240.813 34.978 240.741 35.191 240.723 35.401H244.089Z" fill="#F7D5A0"/>
</g>
<defs>
<clipPath id="clip0_1093_3505">
<rect width="419" height="48" fill="white"/>
</clipPath>
</defs>
</svg>
