<svg width="399" height="72" viewBox="0 0 399 72" fill="none" xmlns="http://www.w3.org/2000/svg">
<g clip-path="url(#clip0_1093_3506)">
<path d="M0 54.5C0 31.0279 19.0279 12 42.5 12H116" stroke="#F7D5A0" stroke-width="2" stroke-linecap="round"/>
<path d="M130.882 4.12H133.132V14.011H137.587V16H130.882V4.12ZM139.55 16V8.611H141.827V16H139.55ZM140.72 6.703C140.342 6.703 140.021 6.571 139.757 6.307C139.499 6.043 139.37 5.728 139.37 5.362C139.37 4.996 139.502 4.678 139.766 4.408C140.03 4.138 140.348 4.003 140.72 4.003C140.966 4.003 141.191 4.066 141.395 4.192C141.599 4.312 141.764 4.474 141.89 4.678C142.016 4.882 142.079 5.11 142.079 5.362C142.079 5.728 141.944 6.043 141.674 6.307C141.41 6.571 141.092 6.703 140.72 6.703ZM147.65 19.951C147.11 19.951 146.591 19.9 146.093 19.798C145.601 19.696 145.154 19.537 144.752 19.321C144.35 19.105 144.014 18.823 143.744 18.475L145.13 17.071C145.256 17.233 145.418 17.395 145.616 17.557C145.82 17.725 146.078 17.863 146.39 17.971C146.702 18.085 147.092 18.142 147.56 18.142C148.004 18.142 148.385 18.055 148.703 17.881C149.027 17.713 149.276 17.473 149.45 17.161C149.63 16.849 149.72 16.486 149.72 16.072V15.865H151.961V16.207C151.961 17.023 151.769 17.71 151.385 18.268C151.001 18.826 150.485 19.246 149.837 19.528C149.189 19.81 148.46 19.951 147.65 19.951ZM149.72 16V14.713C149.666 14.845 149.528 15.031 149.306 15.271C149.084 15.511 148.784 15.73 148.406 15.928C148.034 16.12 147.596 16.216 147.092 16.216C146.384 16.216 145.757 16.048 145.211 15.712C144.665 15.37 144.236 14.905 143.924 14.317C143.618 13.723 143.465 13.054 143.465 12.31C143.465 11.566 143.618 10.9 143.924 10.312C144.236 9.718 144.665 9.25 145.211 8.908C145.757 8.566 146.384 8.395 147.092 8.395C147.584 8.395 148.01 8.479 148.37 8.647C148.736 8.809 149.03 9.001 149.252 9.223C149.48 9.439 149.627 9.634 149.693 9.808V8.611H151.961V16H149.72ZM145.706 12.31C145.706 12.724 145.799 13.09 145.985 13.408C146.171 13.72 146.417 13.963 146.723 14.137C147.029 14.311 147.362 14.398 147.722 14.398C148.1 14.398 148.436 14.311 148.73 14.137C149.024 13.957 149.255 13.711 149.423 13.399C149.597 13.081 149.684 12.718 149.684 12.31C149.684 11.902 149.597 11.542 149.423 11.23C149.255 10.912 149.024 10.663 148.73 10.483C148.436 10.303 148.1 10.213 147.722 10.213C147.362 10.213 147.029 10.303 146.723 10.483C146.417 10.657 146.171 10.903 145.985 11.221C145.799 11.533 145.706 11.896 145.706 12.31ZM158.652 8.395C159.156 8.395 159.648 8.5 160.128 8.71C160.608 8.914 161.001 9.241 161.307 9.691C161.619 10.141 161.775 10.729 161.775 11.455V16H159.48V11.851C159.48 11.245 159.342 10.795 159.066 10.501C158.796 10.207 158.433 10.06 157.977 10.06C157.671 10.06 157.377 10.144 157.095 10.312C156.819 10.474 156.591 10.702 156.411 10.996C156.237 11.284 156.15 11.614 156.15 11.986V16H153.855V3.616H156.15V9.79C156.21 9.586 156.357 9.376 156.591 9.16C156.825 8.944 157.122 8.764 157.482 8.62C157.842 8.47 158.232 8.395 158.652 8.395ZM162.946 8.611H164.278V5.578H166.546V8.611H168.292V10.51H166.546V13.183C166.546 13.537 166.603 13.813 166.717 14.011C166.831 14.203 167.011 14.299 167.257 14.299C167.443 14.299 167.596 14.263 167.716 14.191C167.836 14.113 167.908 14.059 167.932 14.029L168.742 15.667C168.706 15.703 168.589 15.766 168.391 15.856C168.199 15.946 167.95 16.027 167.644 16.099C167.344 16.177 167.005 16.216 166.627 16.216C165.949 16.216 165.388 16.021 164.944 15.631C164.5 15.235 164.278 14.623 164.278 13.795V10.51H162.946V8.611ZM173.915 8.611H175.247V5.578H177.515V8.611H179.261V10.51H177.515V13.183C177.515 13.537 177.572 13.813 177.686 14.011C177.8 14.203 177.98 14.299 178.226 14.299C178.412 14.299 178.565 14.263 178.685 14.191C178.805 14.113 178.877 14.059 178.901 14.029L179.711 15.667C179.675 15.703 179.558 15.766 179.36 15.856C179.168 15.946 178.919 16.027 178.613 16.099C178.313 16.177 177.974 16.216 177.596 16.216C176.918 16.216 176.357 16.021 175.913 15.631C175.469 15.235 175.247 14.623 175.247 13.795V10.51H173.915V8.611ZM184.482 16.216C183.696 16.216 182.994 16.048 182.376 15.712C181.764 15.376 181.284 14.917 180.936 14.335C180.588 13.747 180.414 13.078 180.414 12.328C180.414 11.578 180.588 10.909 180.936 10.321C181.284 9.727 181.764 9.259 182.376 8.917C182.994 8.569 183.696 8.395 184.482 8.395C185.274 8.395 185.973 8.569 186.579 8.917C187.185 9.259 187.659 9.727 188.001 10.321C188.343 10.909 188.514 11.578 188.514 12.328C188.514 13.078 188.343 13.747 188.001 14.335C187.659 14.917 187.185 15.376 186.579 15.712C185.973 16.048 185.274 16.216 184.482 16.216ZM184.482 14.317C184.86 14.317 185.187 14.233 185.463 14.065C185.745 13.891 185.961 13.654 186.111 13.354C186.267 13.048 186.345 12.703 186.345 12.319C186.345 11.935 186.267 11.59 186.111 11.284C185.961 10.978 185.745 10.738 185.463 10.564C185.187 10.384 184.86 10.294 184.482 10.294C184.104 10.294 183.774 10.384 183.492 10.564C183.216 10.738 183 10.978 182.844 11.284C182.688 11.59 182.61 11.935 182.61 12.319C182.61 12.703 182.688 13.048 182.844 13.354C183 13.654 183.216 13.891 183.492 14.065C183.774 14.233 184.104 14.317 184.482 14.317ZM206.641 4.12V16H204.4V8.395L204.508 6.667L204.103 8.629L201.772 15.154H199.558L197.236 8.629L196.84 6.667L196.939 8.395V16H194.689V4.12H197.803L200.521 12.589L200.665 13.399L200.809 12.589L203.536 4.12H206.641ZM210.611 12.814C210.629 13.15 210.719 13.45 210.881 13.714C211.043 13.978 211.277 14.185 211.583 14.335C211.895 14.485 212.267 14.56 212.699 14.56C213.089 14.56 213.431 14.512 213.725 14.416C214.025 14.32 214.277 14.203 214.481 14.065C214.691 13.921 214.847 13.783 214.949 13.651L215.894 15.055C215.726 15.265 215.501 15.46 215.219 15.64C214.943 15.814 214.589 15.952 214.157 16.054C213.731 16.162 213.197 16.216 212.555 16.216C211.745 16.216 211.034 16.057 210.422 15.739C209.81 15.421 209.333 14.962 208.991 14.362C208.649 13.762 208.478 13.048 208.478 12.22C208.478 11.5 208.631 10.852 208.937 10.276C209.243 9.694 209.687 9.235 210.269 8.899C210.857 8.563 211.562 8.395 212.384 8.395C213.158 8.395 213.827 8.545 214.391 8.845C214.961 9.139 215.402 9.571 215.714 10.141C216.026 10.711 216.182 11.407 216.182 12.229C216.182 12.277 216.179 12.376 216.173 12.526C216.173 12.67 216.167 12.766 216.155 12.814H210.611ZM214.04 11.401C214.034 11.209 213.974 11.002 213.86 10.78C213.752 10.558 213.581 10.369 213.347 10.213C213.113 10.057 212.801 9.979 212.411 9.979C212.021 9.979 211.7 10.054 211.448 10.204C211.202 10.354 211.016 10.54 210.89 10.762C210.764 10.978 210.692 11.191 210.674 11.401H214.04ZM220.921 16.216C220.219 16.216 219.601 16.048 219.067 15.712C218.539 15.37 218.125 14.905 217.825 14.317C217.531 13.723 217.384 13.054 217.384 12.31C217.384 11.566 217.531 10.9 217.825 10.312C218.125 9.718 218.539 9.25 219.067 8.908C219.601 8.566 220.219 8.395 220.921 8.395C221.419 8.395 221.86 8.476 222.244 8.638C222.634 8.8 222.946 8.992 223.18 9.214C223.414 9.436 223.552 9.634 223.594 9.808V3.616H225.889V16H223.621V14.713C223.525 14.923 223.348 15.145 223.09 15.379C222.832 15.613 222.517 15.811 222.145 15.973C221.773 16.135 221.365 16.216 220.921 16.216ZM221.569 14.398C221.953 14.398 222.298 14.311 222.604 14.137C222.91 13.957 223.15 13.711 223.324 13.399C223.504 13.081 223.594 12.718 223.594 12.31C223.594 11.902 223.504 11.542 223.324 11.23C223.15 10.912 222.91 10.663 222.604 10.483C222.298 10.303 221.953 10.213 221.569 10.213C221.215 10.213 220.891 10.303 220.597 10.483C220.303 10.657 220.066 10.903 219.886 11.221C219.712 11.533 219.625 11.896 219.625 12.31C219.625 12.724 219.712 13.09 219.886 13.408C220.066 13.72 220.303 13.963 220.597 14.137C220.891 14.311 221.215 14.398 221.569 14.398ZM227.651 16V8.611H229.928V16H227.651ZM228.821 6.703C228.443 6.703 228.122 6.571 227.858 6.307C227.6 6.043 227.471 5.728 227.471 5.362C227.471 4.996 227.603 4.678 227.867 4.408C228.131 4.138 228.449 4.003 228.821 4.003C229.067 4.003 229.292 4.066 229.496 4.192C229.7 4.312 229.865 4.474 229.991 4.678C230.117 4.882 230.18 5.11 230.18 5.362C230.18 5.728 230.045 6.043 229.775 6.307C229.511 6.571 229.193 6.703 228.821 6.703ZM234.168 12.148C234.168 12.808 234.3 13.336 234.564 13.732C234.828 14.122 235.254 14.317 235.842 14.317C236.436 14.317 236.865 14.122 237.129 13.732C237.393 13.336 237.525 12.808 237.525 12.148V8.611H239.775V12.409C239.775 13.171 239.622 13.84 239.316 14.416C239.01 14.986 238.563 15.43 237.975 15.748C237.393 16.06 236.682 16.216 235.842 16.216C235.008 16.216 234.297 16.06 233.709 15.748C233.127 15.43 232.683 14.986 232.377 14.416C232.071 13.84 231.918 13.171 231.918 12.409V8.611H234.168V12.148ZM251.289 8.395C251.841 8.395 252.321 8.512 252.729 8.746C253.143 8.98 253.464 9.34 253.692 9.826C253.926 10.306 254.043 10.924 254.043 11.68V16H251.793V12.049C251.793 11.425 251.7 10.939 251.514 10.591C251.334 10.243 250.989 10.069 250.479 10.069C250.191 10.069 249.927 10.147 249.687 10.303C249.447 10.453 249.255 10.675 249.111 10.969C248.973 11.263 248.904 11.623 248.904 12.049V16H246.798V12.049C246.798 11.425 246.693 10.939 246.483 10.591C246.273 10.243 245.94 10.069 245.484 10.069C245.19 10.069 244.923 10.144 244.683 10.294C244.449 10.444 244.263 10.666 244.125 10.96C243.993 11.248 243.927 11.611 243.927 12.049V16H241.659V8.611H243.927V9.691C243.993 9.505 244.143 9.313 244.377 9.115C244.617 8.917 244.914 8.749 245.268 8.611C245.622 8.467 246.003 8.395 246.411 8.395C246.855 8.395 247.224 8.47 247.518 8.62C247.812 8.77 248.049 8.962 248.229 9.196C248.415 9.424 248.556 9.664 248.652 9.916C248.736 9.682 248.901 9.448 249.147 9.214C249.393 8.98 249.702 8.785 250.074 8.629C250.446 8.473 250.851 8.395 251.289 8.395ZM260.484 4.12H265.056C265.728 4.12 266.331 4.261 266.865 4.543C267.399 4.819 267.822 5.224 268.134 5.758C268.452 6.286 268.611 6.925 268.611 7.675C268.611 8.419 268.473 9.031 268.197 9.511C267.921 9.985 267.588 10.342 267.198 10.582C266.814 10.822 266.457 10.96 266.127 10.996L269.043 16H266.505L263.868 11.167H262.725V16H260.484V4.12ZM262.725 9.583H264.255C264.825 9.583 265.308 9.442 265.704 9.16C266.106 8.878 266.307 8.404 266.307 7.738C266.307 7.072 266.109 6.604 265.713 6.334C265.317 6.058 264.837 5.92 264.273 5.92H262.725V9.583ZM274.518 16.216C273.732 16.216 273.03 16.048 272.412 15.712C271.8 15.376 271.32 14.917 270.972 14.335C270.624 13.747 270.45 13.078 270.45 12.328C270.45 11.578 270.624 10.909 270.972 10.321C271.32 9.727 271.8 9.259 272.412 8.917C273.03 8.569 273.732 8.395 274.518 8.395C275.31 8.395 276.009 8.569 276.615 8.917C277.221 9.259 277.695 9.727 278.037 10.321C278.379 10.909 278.55 11.578 278.55 12.328C278.55 13.078 278.379 13.747 278.037 14.335C277.695 14.917 277.221 15.376 276.615 15.712C276.009 16.048 275.31 16.216 274.518 16.216ZM274.518 14.317C274.896 14.317 275.223 14.233 275.499 14.065C275.781 13.891 275.997 13.654 276.147 13.354C276.303 13.048 276.381 12.703 276.381 12.319C276.381 11.935 276.303 11.59 276.147 11.284C275.997 10.978 275.781 10.738 275.499 10.564C275.223 10.384 274.896 10.294 274.518 10.294C274.14 10.294 273.81 10.384 273.528 10.564C273.252 10.738 273.036 10.978 272.88 11.284C272.724 11.59 272.646 11.935 272.646 12.319C272.646 12.703 272.724 13.048 272.88 13.354C273.036 13.654 273.252 13.891 273.528 14.065C273.81 14.233 274.14 14.317 274.518 14.317ZM285.898 16V14.713C285.844 14.845 285.706 15.031 285.484 15.271C285.262 15.511 284.962 15.73 284.584 15.928C284.212 16.12 283.774 16.216 283.27 16.216C282.562 16.216 281.935 16.048 281.389 15.712C280.843 15.37 280.414 14.905 280.102 14.317C279.796 13.723 279.643 13.054 279.643 12.31C279.643 11.566 279.796 10.9 280.102 10.312C280.414 9.718 280.843 9.25 281.389 8.908C281.935 8.566 282.562 8.395 283.27 8.395C283.762 8.395 284.188 8.479 284.548 8.647C284.914 8.809 285.208 9.001 285.43 9.223C285.658 9.439 285.805 9.634 285.871 9.808V8.611H288.139V16H285.898ZM281.884 12.31C281.884 12.724 281.977 13.09 282.163 13.408C282.349 13.72 282.595 13.963 282.901 14.137C283.207 14.311 283.54 14.398 283.9 14.398C284.278 14.398 284.614 14.311 284.908 14.137C285.202 13.957 285.433 13.711 285.601 13.399C285.775 13.081 285.862 12.718 285.862 12.31C285.862 11.902 285.775 11.542 285.601 11.23C285.433 10.912 285.202 10.663 284.908 10.483C284.614 10.303 284.278 10.213 283.9 10.213C283.54 10.213 283.207 10.303 282.901 10.483C282.595 10.657 282.349 10.903 282.163 11.221C281.977 11.533 281.884 11.896 281.884 12.31ZM293.121 8.395C293.565 8.395 293.976 8.437 294.354 8.521C294.732 8.599 295.05 8.689 295.308 8.791C295.572 8.893 295.746 8.98 295.83 9.052L295.047 10.429C294.927 10.333 294.711 10.219 294.399 10.087C294.093 9.955 293.751 9.889 293.373 9.889C293.031 9.889 292.743 9.949 292.509 10.069C292.275 10.183 292.158 10.357 292.158 10.591C292.158 10.825 292.284 11.011 292.536 11.149C292.788 11.287 293.139 11.407 293.589 11.509C293.967 11.587 294.339 11.707 294.705 11.869C295.071 12.025 295.374 12.253 295.614 12.553C295.854 12.847 295.974 13.24 295.974 13.732C295.974 14.218 295.869 14.623 295.659 14.947C295.455 15.265 295.182 15.517 294.84 15.703C294.498 15.889 294.123 16.021 293.715 16.099C293.307 16.177 292.902 16.216 292.5 16.216C291.978 16.216 291.519 16.165 291.123 16.063C290.727 15.967 290.4 15.856 290.142 15.73C289.89 15.598 289.71 15.487 289.602 15.397L290.385 13.867C290.541 14.005 290.796 14.158 291.15 14.326C291.51 14.488 291.897 14.569 292.311 14.569C292.743 14.569 293.082 14.494 293.328 14.344C293.58 14.194 293.706 13.993 293.706 13.741C293.706 13.555 293.646 13.405 293.526 13.291C293.406 13.171 293.241 13.072 293.031 12.994C292.821 12.916 292.575 12.847 292.293 12.787C292.035 12.733 291.771 12.655 291.5 12.553C291.231 12.445 290.979 12.304 290.745 12.13C290.511 11.956 290.322 11.74 290.178 11.482C290.034 11.218 289.962 10.903 289.962 10.537C289.962 10.069 290.112 9.679 290.412 9.367C290.712 9.049 291.102 8.809 291.582 8.647C292.062 8.479 292.575 8.395 293.121 8.395ZM296.821 8.611H298.153V5.578H300.421V8.611H302.167V10.51H300.421V13.183C300.421 13.537 300.478 13.813 300.592 14.011C300.706 14.203 300.886 14.299 301.132 14.299C301.318 14.299 301.471 14.263 301.591 14.191C301.711 14.113 301.783 14.059 301.807 14.029L302.617 15.667C302.581 15.703 302.464 15.766 302.266 15.856C302.074 15.946 301.825 16.027 301.519 16.099C301.219 16.177 300.88 16.216 300.502 16.216C299.824 16.216 299.263 16.021 298.819 15.631C298.375 15.235 298.153 14.623 298.153 13.795V10.51H296.821V8.611ZM306.867 8.395C307.311 8.395 307.722 8.437 308.1 8.521C308.478 8.599 308.796 8.689 309.054 8.791C309.318 8.893 309.492 8.98 309.576 9.052L308.793 10.429C308.673 10.333 308.457 10.219 308.145 10.087C307.839 9.955 307.497 9.889 307.119 9.889C306.777 9.889 306.489 9.949 306.255 10.069C306.021 10.183 305.904 10.357 305.904 10.591C305.904 10.825 306.03 11.011 306.282 11.149C306.534 11.287 306.885 11.407 307.335 11.509C307.713 11.587 308.085 11.707 308.451 11.869C308.817 12.025 309.12 12.253 309.36 12.553C309.6 12.847 309.72 13.24 309.72 13.732C309.72 14.218 309.615 14.623 309.405 14.947C309.201 15.265 308.928 15.517 308.586 15.703C308.244 15.889 307.869 16.021 307.461 16.099C307.053 16.177 306.648 16.216 306.246 16.216C305.724 16.216 305.265 16.165 304.869 16.063C304.473 15.967 304.146 15.856 303.888 15.73C303.636 15.598 303.456 15.487 303.348 15.397L304.131 13.867C304.287 14.005 304.542 14.158 304.896 14.326C305.256 14.488 305.643 14.569 306.057 14.569C306.489 14.569 306.828 14.494 307.074 14.344C307.326 14.194 307.452 13.993 307.452 13.741C307.452 13.555 307.392 13.405 307.272 13.291C307.152 13.171 306.987 13.072 306.777 12.994C306.567 12.916 306.321 12.847 306.039 12.787C305.781 12.733 305.517 12.655 305.247 12.553C304.977 12.445 304.725 12.304 304.491 12.13C304.257 11.956 304.068 11.74 303.924 11.482C303.78 11.218 303.708 10.903 303.708 10.537C303.708 10.069 303.858 9.679 304.158 9.367C304.458 9.049 304.848 8.809 305.328 8.647C305.808 8.479 306.321 8.395 306.867 8.395ZM317.679 12.814C317.697 13.15 317.787 13.45 317.949 13.714C318.111 13.978 318.345 14.185 318.651 14.335C318.963 14.485 319.335 14.56 319.767 14.56C320.157 14.56 320.499 14.512 320.793 14.416C321.093 14.32 321.345 14.203 321.549 14.065C321.759 13.921 321.915 13.783 322.017 13.651L322.962 15.055C322.794 15.265 322.569 15.46 322.287 15.64C322.011 15.814 321.657 15.952 321.225 16.054C320.799 16.162 320.265 16.216 319.623 16.216C318.813 16.216 318.102 16.057 317.49 15.739C316.878 15.421 316.401 14.962 316.059 14.362C315.717 13.762 315.546 13.048 315.546 12.22C315.546 11.5 315.699 10.852 316.005 10.276C316.311 9.694 316.755 9.235 317.337 8.899C317.925 8.563 318.63 8.395 319.452 8.395C320.226 8.395 320.895 8.545 321.459 8.845C322.029 9.139 322.47 9.571 322.782 10.141C323.094 10.711 323.25 11.407 323.25 12.229C323.25 12.277 323.247 12.376 323.241 12.526C323.241 12.67 323.235 12.766 323.223 12.814H317.679ZM321.108 11.401C321.102 11.209 321.042 11.002 320.928 10.78C320.82 10.558 320.649 10.369 320.415 10.213C320.181 10.057 319.869 9.979 319.479 9.979C319.089 9.979 318.768 10.054 318.516 10.204C318.27 10.354 318.084 10.54 317.958 10.762C317.832 10.978 317.76 11.191 317.742 11.401H321.108ZM329.501 8.395C330.005 8.395 330.497 8.5 330.977 8.71C331.457 8.914 331.85 9.241 332.156 9.691C332.468 10.141 332.624 10.729 332.624 11.455V16H330.329V11.851C330.329 11.245 330.185 10.795 329.897 10.501C329.615 10.207 329.243 10.06 328.781 10.06C328.481 10.06 328.193 10.144 327.917 10.312C327.647 10.474 327.425 10.702 327.251 10.996C327.083 11.284 326.999 11.614 326.999 11.986V16H324.713V8.611H326.999V9.79C327.065 9.586 327.215 9.376 327.449 9.16C327.683 8.944 327.98 8.764 328.34 8.62C328.7 8.47 329.087 8.395 329.501 8.395ZM337.505 8.395C337.949 8.395 338.36 8.437 338.738 8.521C339.116 8.599 339.434 8.689 339.692 8.791C339.956 8.893 340.13 8.98 340.214 9.052L339.431 10.429C339.311 10.333 339.095 10.219 338.783 10.087C338.477 9.955 338.135 9.889 337.757 9.889C337.415 9.889 337.127 9.949 336.893 10.069C336.659 10.183 336.542 10.357 336.542 10.591C336.542 10.825 336.668 11.011 336.92 11.149C337.172 11.287 337.523 11.407 337.973 11.509C338.351 11.587 338.723 11.707 339.089 11.869C339.455 12.025 339.758 12.253 339.998 12.553C340.238 12.847 340.358 13.24 340.358 13.732C340.358 14.218 340.253 14.623 340.043 14.947C339.839 15.265 339.566 15.517 339.224 15.703C338.882 15.889 338.507 16.021 338.099 16.099C337.691 16.177 337.286 16.216 336.884 16.216C336.362 16.216 335.903 16.165 335.507 16.063C335.111 15.967 334.784 15.856 334.526 15.73C334.274 15.598 334.094 15.487 333.986 15.397L334.769 13.867C334.925 14.005 335.18 14.158 335.534 14.326C335.894 14.488 336.281 14.569 336.695 14.569C337.127 14.569 337.466 14.494 337.712 14.344C337.964 14.194 338.09 13.993 338.09 13.741C338.09 13.555 338.03 13.405 337.91 13.291C337.79 13.171 337.625 13.072 337.415 12.994C337.205 12.916 336.959 12.847 336.677 12.787C336.419 12.733 336.155 12.655 335.885 12.553C335.615 12.445 335.363 12.304 335.129 12.13C334.895 11.956 334.706 11.74 334.562 11.482C334.418 11.218 334.346 10.903 334.346 10.537C334.346 10.069 334.496 9.679 334.796 9.367C335.096 9.049 335.486 8.809 335.966 8.647C336.446 8.479 336.959 8.395 337.505 8.395ZM344.119 12.148C344.119 12.808 344.251 13.336 344.515 13.732C344.779 14.122 345.205 14.317 345.793 14.317C346.387 14.317 346.816 14.122 347.08 13.732C347.344 13.336 347.476 12.808 347.476 12.148V8.611H349.726V12.409C349.726 13.171 349.573 13.84 349.267 14.416C348.961 14.986 348.514 15.43 347.926 15.748C347.344 16.06 346.633 16.216 345.793 16.216C344.959 16.216 344.248 16.06 343.66 15.748C343.078 15.43 342.634 14.986 342.328 14.416C342.022 13.84 341.869 13.171 341.869 12.409V8.611H344.119V12.148ZM353.707 16H351.421V8.611H353.707V9.808H353.662C353.704 9.664 353.818 9.481 354.004 9.259C354.196 9.037 354.46 8.839 354.796 8.665C355.132 8.485 355.537 8.395 356.011 8.395C356.353 8.395 356.662 8.446 356.938 8.548C357.22 8.644 357.421 8.74 357.541 8.836L356.641 10.708C356.563 10.612 356.416 10.513 356.2 10.411C355.99 10.309 355.726 10.258 355.408 10.258C355.03 10.258 354.715 10.363 354.463 10.573C354.211 10.777 354.022 11.029 353.896 11.329C353.77 11.623 353.707 11.899 353.707 12.157V16ZM359.902 12.814C359.92 13.15 360.01 13.45 360.172 13.714C360.334 13.978 360.568 14.185 360.874 14.335C361.186 14.485 361.558 14.56 361.99 14.56C362.38 14.56 362.722 14.512 363.016 14.416C363.316 14.32 363.568 14.203 363.772 14.065C363.982 13.921 364.138 13.783 364.24 13.651L365.185 15.055C365.017 15.265 364.792 15.46 364.51 15.64C364.234 15.814 363.88 15.952 363.448 16.054C363.022 16.162 362.488 16.216 361.846 16.216C361.036 16.216 360.325 16.057 359.713 15.739C359.101 15.421 358.624 14.962 358.282 14.362C357.94 13.762 357.769 13.048 357.769 12.22C357.769 11.5 357.922 10.852 358.228 10.276C358.534 9.694 358.978 9.235 359.56 8.899C360.148 8.563 360.853 8.395 361.675 8.395C362.449 8.395 363.118 8.545 363.682 8.845C364.252 9.139 364.693 9.571 365.005 10.141C365.317 10.711 365.473 11.407 365.473 12.229C365.473 12.277 365.47 12.376 365.464 12.526C365.464 12.67 365.458 12.766 365.446 12.814H359.902ZM363.331 11.401C363.325 11.209 363.265 11.002 363.151 10.78C363.043 10.558 362.872 10.369 362.638 10.213C362.404 10.057 362.092 9.979 361.702 9.979C361.312 9.979 360.991 10.054 360.739 10.204C360.493 10.354 360.307 10.54 360.181 10.762C360.055 10.978 359.983 11.191 359.965 11.401H363.331ZM135.544 32.395C136.048 32.395 136.54 32.5 137.02 32.71C137.5 32.914 137.893 33.241 138.199 33.691C138.511 34.141 138.667 34.729 138.667 35.455V40H136.372V35.851C136.372 35.245 136.228 34.795 135.94 34.501C135.658 34.207 135.286 34.06 134.824 34.06C134.524 34.06 134.236 34.144 133.96 34.312C133.69 34.474 133.468 34.702 133.294 34.996C133.126 35.284 133.042 35.614 133.042 35.986V40H130.756V32.611H133.042V33.79C133.108 33.586 133.258 33.376 133.492 33.16C133.726 32.944 134.023 32.764 134.383 32.62C134.743 32.47 135.13 32.395 135.544 32.395ZM146.257 40V38.713C146.203 38.845 146.065 39.031 145.843 39.271C145.621 39.511 145.321 39.73 144.943 39.928C144.571 40.12 144.133 40.216 143.629 40.216C142.921 40.216 142.294 40.048 141.748 39.712C141.202 39.37 140.773 38.905 140.461 38.317C140.155 37.723 140.002 37.054 140.002 36.31C140.002 35.566 140.155 34.9 140.461 34.312C140.773 33.718 141.202 33.25 141.748 32.908C142.294 32.566 142.921 32.395 143.629 32.395C144.121 32.395 144.547 32.479 144.907 32.647C145.273 32.809 145.567 33.001 145.789 33.223C146.017 33.439 146.164 33.634 146.23 33.808V32.611H148.498V40H146.257ZM142.243 36.31C142.243 36.724 142.336 37.09 142.522 37.408C142.708 37.72 142.954 37.963 143.26 38.137C143.566 38.311 143.899 38.398 144.259 38.398C144.637 38.398 144.973 38.311 145.267 38.137C145.561 37.957 145.792 37.711 145.96 37.399C146.134 37.081 146.221 36.718 146.221 36.31C146.221 35.902 146.134 35.542 145.96 35.23C145.792 34.912 145.561 34.663 145.267 34.483C144.973 34.303 144.637 34.213 144.259 34.213C143.899 34.213 143.566 34.303 143.26 34.483C142.954 34.657 142.708 34.903 142.522 35.221C142.336 35.533 142.243 35.896 142.243 36.31ZM149.745 32.611H151.077V29.578H153.345V32.611H155.091V34.51H153.345V37.183C153.345 37.537 153.402 37.813 153.516 38.011C153.63 38.203 153.81 38.299 154.056 38.299C154.242 38.299 154.395 38.263 154.515 38.191C154.635 38.113 154.707 38.059 154.731 38.029L155.541 39.667C155.505 39.703 155.388 39.766 155.19 39.856C154.998 39.946 154.749 40.027 154.443 40.099C154.143 40.177 153.804 40.216 153.426 40.216C152.748 40.216 152.187 40.021 151.743 39.631C151.299 39.235 151.077 38.623 151.077 37.795V34.51H149.745V32.611ZM156.811 40V32.611H159.088V40H156.811ZM157.981 30.703C157.603 30.703 157.282 30.571 157.018 30.307C156.76 30.043 156.631 29.728 156.631 29.362C156.631 28.996 156.763 28.678 157.027 28.408C157.291 28.138 157.609 28.003 157.981 28.003C158.227 28.003 158.452 28.066 158.656 28.192C158.86 28.312 159.025 28.474 159.151 28.678C159.277 28.882 159.34 29.11 159.34 29.362C159.34 29.728 159.205 30.043 158.935 30.307C158.671 30.571 158.353 30.703 157.981 30.703ZM160.475 32.611H162.923L164.948 37.912L166.973 32.611H169.412L166.289 40H163.607L160.475 32.611ZM172.361 36.814C172.379 37.15 172.469 37.45 172.631 37.714C172.793 37.978 173.027 38.185 173.333 38.335C173.645 38.485 174.017 38.56 174.449 38.56C174.839 38.56 175.181 38.512 175.475 38.416C175.775 38.32 176.027 38.203 176.231 38.065C176.441 37.921 176.597 37.783 176.699 37.651L177.644 39.055C177.476 39.265 177.251 39.46 176.969 39.64C176.693 39.814 176.339 39.952 175.907 40.054C175.481 40.162 174.947 40.216 174.305 40.216C173.495 40.216 172.784 40.057 172.172 39.739C171.56 39.421 171.083 38.962 170.741 38.362C170.399 37.762 170.228 37.048 170.228 36.22C170.228 35.5 170.381 34.852 170.687 34.276C170.993 33.694 171.437 33.235 172.019 32.899C172.607 32.563 173.312 32.395 174.134 32.395C174.908 32.395 175.577 32.545 176.141 32.845C176.711 33.139 177.152 33.571 177.464 34.141C177.776 34.711 177.932 35.407 177.932 36.229C177.932 36.277 177.929 36.376 177.923 36.526C177.923 36.67 177.917 36.766 177.905 36.814H172.361ZM175.79 35.401C175.784 35.209 175.724 35.002 175.61 34.78C175.502 34.558 175.331 34.369 175.097 34.213C174.863 34.057 174.551 33.979 174.161 33.979C173.771 33.979 173.45 34.054 173.198 34.204C172.952 34.354 172.766 34.54 172.64 34.762C172.514 34.978 172.442 35.191 172.424 35.401H175.79ZM183.495 32.611H184.827V29.578H187.095V32.611H188.841V34.51H187.095V37.183C187.095 37.537 187.152 37.813 187.266 38.011C187.38 38.203 187.56 38.299 187.806 38.299C187.992 38.299 188.145 38.263 188.265 38.191C188.385 38.113 188.457 38.059 188.481 38.029L189.291 39.667C189.255 39.703 189.138 39.766 188.94 39.856C188.748 39.946 188.499 40.027 188.193 40.099C187.893 40.177 187.554 40.216 187.176 40.216C186.498 40.216 185.937 40.021 185.493 39.631C185.049 39.235 184.827 38.623 184.827 37.795V34.51H183.495V32.611ZM196.249 40V38.713C196.195 38.845 196.057 39.031 195.835 39.271C195.613 39.511 195.313 39.73 194.935 39.928C194.563 40.12 194.125 40.216 193.621 40.216C192.913 40.216 192.286 40.048 191.74 39.712C191.194 39.37 190.765 38.905 190.453 38.317C190.147 37.723 189.994 37.054 189.994 36.31C189.994 35.566 190.147 34.9 190.453 34.312C190.765 33.718 191.194 33.25 191.74 32.908C192.286 32.566 192.913 32.395 193.621 32.395C194.113 32.395 194.539 32.479 194.899 32.647C195.265 32.809 195.559 33.001 195.781 33.223C196.009 33.439 196.156 33.634 196.222 33.808V32.611H198.49V40H196.249ZM192.235 36.31C192.235 36.724 192.328 37.09 192.514 37.408C192.7 37.72 192.946 37.963 193.252 38.137C193.558 38.311 193.891 38.398 194.251 38.398C194.629 38.398 194.965 38.311 195.259 38.137C195.553 37.957 195.784 37.711 195.952 37.399C196.126 37.081 196.213 36.718 196.213 36.31C196.213 35.902 196.126 35.542 195.952 35.23C195.784 34.912 195.553 34.663 195.259 34.483C194.965 34.303 194.629 34.213 194.251 34.213C193.891 34.213 193.558 34.303 193.252 34.483C192.946 34.657 192.7 34.903 192.514 35.221C192.328 35.533 192.235 35.896 192.235 36.31ZM203.472 32.395C203.916 32.395 204.327 32.437 204.705 32.521C205.083 32.599 205.401 32.689 205.659 32.791C205.923 32.893 206.097 32.98 206.181 33.052L205.398 34.429C205.278 34.333 205.062 34.219 204.75 34.087C204.444 33.955 204.102 33.889 203.724 33.889C203.382 33.889 203.094 33.949 202.86 34.069C202.626 34.183 202.509 34.357 202.509 34.591C202.509 34.825 202.635 35.011 202.887 35.149C203.139 35.287 203.49 35.407 203.94 35.509C204.318 35.587 204.69 35.707 205.056 35.869C205.422 36.025 205.725 36.253 205.965 36.553C206.205 36.847 206.325 37.24 206.325 37.732C206.325 38.218 206.22 38.623 206.01 38.947C205.806 39.265 205.533 39.517 205.191 39.703C204.849 39.889 204.474 40.021 204.066 40.099C203.658 40.177 203.253 40.216 202.851 40.216C202.329 40.216 201.87 40.165 201.474 40.063C201.078 39.967 200.751 39.856 200.493 39.73C200.241 39.598 200.061 39.487 199.953 39.397L200.736 37.867C200.892 38.005 201.147 38.158 201.501 38.326C201.861 38.488 202.248 38.569 202.662 38.569C203.094 38.569 203.433 38.494 203.679 38.344C203.931 38.194 204.057 37.993 204.057 37.741C204.057 37.555 203.997 37.405 203.877 37.291C203.757 37.171 203.592 37.072 203.382 36.994C203.172 36.916 202.926 36.847 202.644 36.787C202.386 36.733 202.122 36.655 201.852 36.553C201.582 36.445 201.33 36.304 201.096 36.13C200.862 35.956 200.673 35.74 200.529 35.482C200.385 35.218 200.313 34.903 200.313 34.537C200.313 34.069 200.463 33.679 200.763 33.367C201.063 33.049 201.453 32.809 201.933 32.647C202.413 32.479 202.926 32.395 203.472 32.395ZM207.173 32.611H208.505V29.578H210.773V32.611H212.519V34.51H210.773V37.183C210.773 37.537 210.83 37.813 210.944 38.011C211.058 38.203 211.238 38.299 211.484 38.299C211.67 38.299 211.823 38.263 211.943 38.191C212.063 38.113 212.135 38.059 212.159 38.029L212.969 39.667C212.933 39.703 212.816 39.766 212.618 39.856C212.426 39.946 212.177 40.027 211.871 40.099C211.571 40.177 211.232 40.216 210.854 40.216C210.176 40.216 209.615 40.021 209.171 39.631C208.727 39.235 208.505 38.623 208.505 37.795V34.51H207.173V32.611ZM214.239 40V32.611H216.516V40H214.239ZM215.409 30.703C215.031 30.703 214.71 30.571 214.446 30.307C214.188 30.043 214.059 29.728 214.059 29.362C214.059 28.996 214.191 28.678 214.455 28.408C214.719 28.138 215.037 28.003 215.409 28.003C215.655 28.003 215.88 28.066 216.084 28.192C216.288 28.312 216.453 28.474 216.579 28.678C216.705 28.882 216.768 29.11 216.768 29.362C216.768 29.728 216.633 30.043 216.363 30.307C216.099 30.571 215.781 30.703 215.409 30.703ZM223.312 32.395C223.816 32.395 224.308 32.5 224.788 32.71C225.268 32.914 225.661 33.241 225.967 33.691C226.279 34.141 226.435 34.729 226.435 35.455V40H224.14V35.851C224.14 35.245 223.996 34.795 223.708 34.501C223.426 34.207 223.054 34.06 222.592 34.06C222.292 34.06 222.004 34.144 221.728 34.312C221.458 34.474 221.236 34.702 221.062 34.996C220.894 35.284 220.81 35.614 220.81 35.986V40H218.524V32.611H220.81V33.79C220.876 33.586 221.026 33.376 221.26 33.16C221.494 32.944 221.791 32.764 222.151 32.62C222.511 32.47 222.898 32.395 223.312 32.395ZM231.955 43.951C231.415 43.951 230.896 43.9 230.398 43.798C229.906 43.696 229.459 43.537 229.057 43.321C228.655 43.105 228.319 42.823 228.049 42.475L229.435 41.071C229.561 41.233 229.723 41.395 229.921 41.557C230.125 41.725 230.383 41.863 230.695 41.971C231.007 42.085 231.397 42.142 231.865 42.142C232.309 42.142 232.69 42.055 233.008 41.881C233.332 41.713 233.581 41.473 233.755 41.161C233.935 40.849 234.025 40.486 234.025 40.072V39.865H236.266V40.207C236.266 41.023 236.074 41.71 235.69 42.268C235.306 42.826 234.79 43.246 234.142 43.528C233.494 43.81 232.765 43.951 231.955 43.951ZM234.025 40V38.713C233.971 38.845 233.833 39.031 233.611 39.271C233.389 39.511 233.089 39.73 232.711 39.928C232.339 40.12 231.901 40.216 231.397 40.216C230.689 40.216 230.062 40.048 229.516 39.712C228.97 39.37 228.541 38.905 228.229 38.317C227.923 37.723 227.77 37.054 227.77 36.31C227.77 35.566 227.923 34.9 228.229 34.312C228.541 33.718 228.97 33.25 229.516 32.908C230.062 32.566 230.689 32.395 231.397 32.395C231.889 32.395 232.315 32.479 232.675 32.647C233.041 32.809 233.335 33.001 233.557 33.223C233.785 33.439 233.932 33.634 233.998 33.808V32.611H236.266V40H234.025ZM230.011 36.31C230.011 36.724 230.104 37.09 230.29 37.408C230.476 37.72 230.722 37.963 231.028 38.137C231.334 38.311 231.667 38.398 232.027 38.398C232.405 38.398 232.741 38.311 233.035 38.137C233.329 37.957 233.56 37.711 233.728 37.399C233.902 37.081 233.989 36.718 233.989 36.31C233.989 35.902 233.902 35.542 233.728 35.23C233.56 34.912 233.329 34.663 233.035 34.483C232.741 34.303 232.405 34.213 232.027 34.213C231.667 34.213 231.334 34.303 231.028 34.483C230.722 34.657 230.476 34.903 230.29 35.221C230.104 35.533 230.011 35.896 230.011 36.31ZM247.552 32.395C248.056 32.395 248.548 32.5 249.028 32.71C249.508 32.914 249.901 33.241 250.207 33.691C250.519 34.141 250.675 34.729 250.675 35.455V40H248.38V35.851C248.38 35.245 248.236 34.795 247.948 34.501C247.666 34.207 247.294 34.06 246.832 34.06C246.532 34.06 246.244 34.144 245.968 34.312C245.698 34.474 245.476 34.702 245.302 34.996C245.134 35.284 245.05 35.614 245.05 35.986V40H242.764V32.611H245.05V33.79C245.116 33.586 245.266 33.376 245.5 33.16C245.734 32.944 246.031 32.764 246.391 32.62C246.751 32.47 247.138 32.395 247.552 32.395ZM256.078 40.216C255.292 40.216 254.59 40.048 253.972 39.712C253.36 39.376 252.88 38.917 252.532 38.335C252.184 37.747 252.01 37.078 252.01 36.328C252.01 35.578 252.184 34.909 252.532 34.321C252.88 33.727 253.36 33.259 253.972 32.917C254.59 32.569 255.292 32.395 256.078 32.395C256.87 32.395 257.569 32.569 258.175 32.917C258.781 33.259 259.255 33.727 259.597 34.321C259.939 34.909 260.11 35.578 260.11 36.328C260.11 37.078 259.939 37.747 259.597 38.335C259.255 38.917 258.781 39.376 258.175 39.712C257.569 40.048 256.87 40.216 256.078 40.216ZM256.078 38.317C256.456 38.317 256.783 38.233 257.059 38.065C257.341 37.891 257.557 37.654 257.707 37.354C257.863 37.048 257.941 36.703 257.941 36.319C257.941 35.935 257.863 35.59 257.707 35.284C257.557 34.978 257.341 34.738 257.059 34.564C256.783 34.384 256.456 34.294 256.078 34.294C255.7 34.294 255.37 34.384 255.088 34.564C254.812 34.738 254.596 34.978 254.44 35.284C254.284 35.59 254.206 35.935 254.206 36.319C254.206 36.703 254.284 37.048 254.44 37.354C254.596 37.654 254.812 37.891 255.088 38.065C255.37 38.233 255.7 38.317 256.078 38.317ZM261.014 32.611H262.346V29.578H264.614V32.611H266.36V34.51H264.614V37.183C264.614 37.537 264.671 37.813 264.785 38.011C264.899 38.203 265.079 38.299 265.325 38.299C265.511 38.299 265.664 38.263 265.784 38.191C265.904 38.113 265.976 38.059 266 38.029L266.81 39.667C266.774 39.703 266.657 39.766 266.459 39.856C266.267 39.946 266.018 40.027 265.712 40.099C265.412 40.177 265.073 40.216 264.695 40.216C264.017 40.216 263.456 40.021 263.012 39.631C262.568 39.235 262.346 38.623 262.346 37.795V34.51H261.014V32.611ZM269.656 36.814C269.674 37.15 269.764 37.45 269.926 37.714C270.088 37.978 270.322 38.185 270.628 38.335C270.94 38.485 271.312 38.56 271.744 38.56C272.134 38.56 272.476 38.512 272.77 38.416C273.07 38.32 273.322 38.203 273.526 38.065C273.736 37.921 273.892 37.783 273.994 37.651L274.939 39.055C274.771 39.265 274.546 39.46 274.264 39.64C273.988 39.814 273.634 39.952 273.202 40.054C272.776 40.162 272.242 40.216 271.6 40.216C270.79 40.216 270.079 40.057 269.467 39.739C268.855 39.421 268.378 38.962 268.036 38.362C267.694 37.762 267.523 37.048 267.523 36.22C267.523 35.5 267.676 34.852 267.982 34.276C268.288 33.694 268.732 33.235 269.314 32.899C269.902 32.563 270.607 32.395 271.429 32.395C272.203 32.395 272.872 32.545 273.436 32.845C274.006 33.139 274.447 33.571 274.759 34.141C275.071 34.711 275.227 35.407 275.227 36.229C275.227 36.277 275.224 36.376 275.218 36.526C275.218 36.67 275.212 36.766 275.2 36.814H269.656ZM273.085 35.401C273.079 35.209 273.019 35.002 272.905 34.78C272.797 34.558 272.626 34.369 272.392 34.213C272.158 34.057 271.846 33.979 271.456 33.979C271.066 33.979 270.745 34.054 270.493 34.204C270.247 34.354 270.061 34.54 269.935 34.762C269.809 34.978 269.737 35.191 269.719 35.401H273.085ZM279.867 32.395C280.311 32.395 280.722 32.437 281.1 32.521C281.478 32.599 281.796 32.689 282.054 32.791C282.318 32.893 282.492 32.98 282.576 33.052L281.793 34.429C281.673 34.333 281.457 34.219 281.145 34.087C280.839 33.955 280.497 33.889 280.119 33.889C279.777 33.889 279.489 33.949 279.255 34.069C279.021 34.183 278.904 34.357 278.904 34.591C278.904 34.825 279.03 35.011 279.282 35.149C279.534 35.287 279.885 35.407 280.335 35.509C280.713 35.587 281.085 35.707 281.451 35.869C281.817 36.025 282.12 36.253 282.36 36.553C282.6 36.847 282.72 37.24 282.72 37.732C282.72 38.218 282.615 38.623 282.405 38.947C282.201 39.265 281.928 39.517 281.586 39.703C281.244 39.889 280.869 40.021 280.461 40.099C280.053 40.177 279.648 40.216 279.246 40.216C278.724 40.216 278.265 40.165 277.869 40.063C277.473 39.967 277.146 39.856 276.888 39.73C276.636 39.598 276.456 39.487 276.348 39.397L277.131 37.867C277.287 38.005 277.542 38.158 277.896 38.326C278.256 38.488 278.643 38.569 279.057 38.569C279.489 38.569 279.828 38.494 280.074 38.344C280.326 38.194 280.452 37.993 280.452 37.741C280.452 37.555 280.392 37.405 280.272 37.291C280.152 37.171 279.987 37.072 279.777 36.994C279.567 36.916 279.321 36.847 279.039 36.787C278.781 36.733 278.517 36.655 278.247 36.553C277.977 36.445 277.725 36.304 277.491 36.13C277.257 35.956 277.068 35.74 276.924 35.482C276.78 35.218 276.708 34.903 276.708 34.537C276.708 34.069 276.858 33.679 277.158 33.367C277.458 33.049 277.848 32.809 278.328 32.647C278.808 32.479 279.321 32.395 279.867 32.395ZM292.605 40.216C291.819 40.216 291.117 40.048 290.499 39.712C289.887 39.376 289.407 38.917 289.059 38.335C288.711 37.747 288.537 37.078 288.537 36.328C288.537 35.578 288.711 34.909 289.059 34.321C289.407 33.727 289.887 33.259 290.499 32.917C291.117 32.569 291.819 32.395 292.605 32.395C293.397 32.395 294.096 32.569 294.702 32.917C295.308 33.259 295.782 33.727 296.124 34.321C296.466 34.909 296.637 35.578 296.637 36.328C296.637 37.078 296.466 37.747 296.124 38.335C295.782 38.917 295.308 39.376 294.702 39.712C294.096 40.048 293.397 40.216 292.605 40.216ZM292.605 38.317C292.983 38.317 293.31 38.233 293.586 38.065C293.868 37.891 294.084 37.654 294.234 37.354C294.39 37.048 294.468 36.703 294.468 36.319C294.468 35.935 294.39 35.59 294.234 35.284C294.084 34.978 293.868 34.738 293.586 34.564C293.31 34.384 292.983 34.294 292.605 34.294C292.227 34.294 291.897 34.384 291.615 34.564C291.339 34.738 291.123 34.978 290.967 35.284C290.811 35.59 290.733 35.935 290.733 36.319C290.733 36.703 290.811 37.048 290.967 37.354C291.123 37.654 291.339 37.891 291.615 38.065C291.897 38.233 292.227 38.317 292.605 38.317ZM297.489 32.611H298.821V30.604C298.821 29.872 298.965 29.272 299.253 28.804C299.541 28.33 299.913 27.979 300.369 27.751C300.825 27.517 301.296 27.4 301.782 27.4C302.376 27.4 302.832 27.481 303.15 27.643C303.468 27.805 303.663 27.922 303.735 27.994L302.853 29.686C302.823 29.644 302.739 29.578 302.601 29.488C302.469 29.392 302.292 29.344 302.07 29.344C301.914 29.344 301.761 29.383 301.611 29.461C301.461 29.539 301.338 29.683 301.242 29.893C301.146 30.103 301.098 30.412 301.098 30.82V32.611H303.033V34.51H301.098V40H298.821V34.51H297.489V32.611ZM310.631 36.814C310.649 37.15 310.739 37.45 310.901 37.714C311.063 37.978 311.297 38.185 311.603 38.335C311.915 38.485 312.287 38.56 312.719 38.56C313.109 38.56 313.451 38.512 313.745 38.416C314.045 38.32 314.297 38.203 314.501 38.065C314.711 37.921 314.867 37.783 314.969 37.651L315.914 39.055C315.746 39.265 315.521 39.46 315.239 39.64C314.963 39.814 314.609 39.952 314.177 40.054C313.751 40.162 313.217 40.216 312.575 40.216C311.765 40.216 311.054 40.057 310.442 39.739C309.83 39.421 309.353 38.962 309.011 38.362C308.669 37.762 308.498 37.048 308.498 36.22C308.498 35.5 308.651 34.852 308.957 34.276C309.263 33.694 309.707 33.235 310.289 32.899C310.877 32.563 311.582 32.395 312.404 32.395C313.178 32.395 313.847 32.545 314.411 32.845C314.981 33.139 315.422 33.571 315.734 34.141C316.046 34.711 316.202 35.407 316.202 36.229C316.202 36.277 316.199 36.376 316.193 36.526C316.193 36.67 316.187 36.766 316.175 36.814H310.631ZM314.06 35.401C314.054 35.209 313.994 35.002 313.88 34.78C313.772 34.558 313.601 34.369 313.367 34.213C313.133 34.057 312.821 33.979 312.431 33.979C312.041 33.979 311.72 34.054 311.468 34.204C311.222 34.354 311.036 34.54 310.91 34.762C310.784 34.978 310.712 35.191 310.694 35.401H314.06ZM317.043 32.611H319.491L321.516 37.912L323.541 32.611H325.98L322.857 40H320.175L317.043 32.611ZM328.929 36.814C328.947 37.15 329.037 37.45 329.199 37.714C329.361 37.978 329.595 38.185 329.901 38.335C330.213 38.485 330.585 38.56 331.017 38.56C331.407 38.56 331.749 38.512 332.043 38.416C332.343 38.32 332.595 38.203 332.799 38.065C333.009 37.921 333.165 37.783 333.267 37.651L334.212 39.055C334.044 39.265 333.819 39.46 333.537 39.64C333.261 39.814 332.907 39.952 332.475 40.054C332.049 40.162 331.515 40.216 330.873 40.216C330.063 40.216 329.352 40.057 328.74 39.739C328.128 39.421 327.651 38.962 327.309 38.362C326.967 37.762 326.796 37.048 326.796 36.22C326.796 35.5 326.949 34.852 327.255 34.276C327.561 33.694 328.005 33.235 328.587 32.899C329.175 32.563 329.88 32.395 330.702 32.395C331.476 32.395 332.145 32.545 332.709 32.845C333.279 33.139 333.72 33.571 334.032 34.141C334.344 34.711 334.5 35.407 334.5 36.229C334.5 36.277 334.497 36.376 334.491 36.526C334.491 36.67 334.485 36.766 334.473 36.814H328.929ZM332.358 35.401C332.352 35.209 332.292 35.002 332.178 34.78C332.07 34.558 331.899 34.369 331.665 34.213C331.431 34.057 331.119 33.979 330.729 33.979C330.339 33.979 330.018 34.054 329.766 34.204C329.52 34.354 329.334 34.54 329.208 34.762C329.082 34.978 329.01 35.191 328.992 35.401H332.358ZM338.168 40H335.882V32.611H338.168V33.808H338.123C338.165 33.664 338.279 33.481 338.465 33.259C338.657 33.037 338.921 32.839 339.257 32.665C339.593 32.485 339.998 32.395 340.472 32.395C340.814 32.395 341.123 32.446 341.399 32.548C341.681 32.644 341.882 32.74 342.002 32.836L341.102 34.708C341.024 34.612 340.877 34.513 340.661 34.411C340.451 34.309 340.187 34.258 339.869 34.258C339.491 34.258 339.176 34.363 338.924 34.573C338.672 34.777 338.483 35.029 338.357 35.329C338.231 35.623 338.168 35.899 338.168 36.157V40ZM346.329 37.993L348.516 32.611H350.775L345.726 43.744H343.431L345.132 40L342.063 32.611H344.349L346.329 37.993ZM356.372 40V27.616H358.658V33.808C358.706 33.634 358.847 33.436 359.081 33.214C359.315 32.992 359.624 32.8 360.008 32.638C360.398 32.476 360.839 32.395 361.331 32.395C362.039 32.395 362.657 32.566 363.185 32.908C363.719 33.25 364.133 33.718 364.427 34.312C364.727 34.9 364.877 35.566 364.877 36.31C364.877 37.054 364.727 37.723 364.427 38.317C364.133 38.905 363.719 39.37 363.185 39.712C362.657 40.048 362.039 40.216 361.331 40.216C360.893 40.216 360.485 40.135 360.107 39.973C359.735 39.811 359.42 39.613 359.162 39.379C358.91 39.145 358.733 38.923 358.631 38.713V40H356.372ZM362.627 36.31C362.627 35.896 362.54 35.533 362.366 35.221C362.192 34.903 361.958 34.657 361.664 34.483C361.37 34.303 361.043 34.213 360.683 34.213C360.305 34.213 359.963 34.303 359.657 34.483C359.351 34.663 359.108 34.912 358.928 35.23C358.748 35.542 358.658 35.902 358.658 36.31C358.658 36.718 358.748 37.081 358.928 37.399C359.108 37.711 359.351 37.957 359.657 38.137C359.963 38.311 360.305 38.398 360.683 38.398C361.043 38.398 361.37 38.311 361.664 38.137C361.958 37.963 362.192 37.72 362.366 37.408C362.54 37.09 362.627 36.724 362.627 36.31ZM367.918 36.814C367.936 37.15 368.026 37.45 368.188 37.714C368.35 37.978 368.584 38.185 368.89 38.335C369.202 38.485 369.574 38.56 370.006 38.56C370.396 38.56 370.738 38.512 371.032 38.416C371.332 38.32 371.584 38.203 371.788 38.065C371.998 37.921 372.154 37.783 372.256 37.651L373.201 39.055C373.033 39.265 372.808 39.46 372.526 39.64C372.25 39.814 371.896 39.952 371.464 40.054C371.038 40.162 370.504 40.216 369.862 40.216C369.052 40.216 368.341 40.057 367.729 39.739C367.117 39.421 366.64 38.962 366.298 38.362C365.956 37.762 365.785 37.048 365.785 36.22C365.785 35.5 365.938 34.852 366.244 34.276C366.55 33.694 366.994 33.235 367.576 32.899C368.164 32.563 368.869 32.395 369.691 32.395C370.465 32.395 371.134 32.545 371.698 32.845C372.268 33.139 372.709 33.571 373.021 34.141C373.333 34.711 373.489 35.407 373.489 36.229C373.489 36.277 373.486 36.376 373.48 36.526C373.48 36.67 373.474 36.766 373.462 36.814H367.918ZM371.347 35.401C371.341 35.209 371.281 35.002 371.167 34.78C371.059 34.558 370.888 34.369 370.654 34.213C370.42 34.057 370.108 33.979 369.718 33.979C369.328 33.979 369.007 34.054 368.755 34.204C368.509 34.354 368.323 34.54 368.197 34.762C368.071 34.978 367.999 35.191 367.981 35.401H371.347ZM380.837 40V38.713C380.783 38.845 380.645 39.031 380.423 39.271C380.201 39.511 379.901 39.73 379.523 39.928C379.151 40.12 378.713 40.216 378.209 40.216C377.501 40.216 376.874 40.048 376.328 39.712C375.782 39.37 375.353 38.905 375.041 38.317C374.735 37.723 374.582 37.054 374.582 36.31C374.582 35.566 374.735 34.9 375.041 34.312C375.353 33.718 375.782 33.25 376.328 32.908C376.874 32.566 377.501 32.395 378.209 32.395C378.701 32.395 379.127 32.479 379.487 32.647C379.853 32.809 380.147 33.001 380.369 33.223C380.597 33.439 380.744 33.634 380.81 33.808V32.611H383.078V40H380.837ZM376.823 36.31C376.823 36.724 376.916 37.09 377.102 37.408C377.288 37.72 377.534 37.963 377.84 38.137C378.146 38.311 378.479 38.398 378.839 38.398C379.217 38.398 379.553 38.311 379.847 38.137C380.141 37.957 380.372 37.711 380.54 37.399C380.714 37.081 380.801 36.718 380.801 36.31C380.801 35.902 380.714 35.542 380.54 35.23C380.372 34.912 380.141 34.663 379.847 34.483C379.553 34.303 379.217 34.213 378.839 34.213C378.479 34.213 378.146 34.303 377.84 34.483C377.534 34.657 377.288 34.903 377.102 35.221C376.916 35.533 376.823 35.896 376.823 36.31ZM389.671 32.395C390.175 32.395 390.667 32.5 391.147 32.71C391.627 32.914 392.02 33.241 392.326 33.691C392.638 34.141 392.794 34.729 392.794 35.455V40H390.499V35.851C390.499 35.245 390.355 34.795 390.067 34.501C389.785 34.207 389.413 34.06 388.951 34.06C388.651 34.06 388.363 34.144 388.087 34.312C387.817 34.474 387.595 34.702 387.421 34.996C387.253 35.284 387.169 35.614 387.169 35.986V40H384.883V32.611H387.169V33.79C387.235 33.586 387.385 33.376 387.619 33.16C387.853 32.944 388.15 32.764 388.51 32.62C388.87 32.47 389.257 32.395 389.671 32.395ZM130.954 64V56.611H133.231V64H130.954ZM132.124 54.703C131.746 54.703 131.425 54.571 131.161 54.307C130.903 54.043 130.774 53.728 130.774 53.362C130.774 52.996 130.906 52.678 131.17 52.408C131.434 52.138 131.752 52.003 132.124 52.003C132.37 52.003 132.595 52.066 132.799 52.192C133.003 52.312 133.168 52.474 133.294 52.678C133.42 52.882 133.483 53.11 133.483 53.362C133.483 53.728 133.348 54.043 133.078 54.307C132.814 54.571 132.496 54.703 132.124 54.703ZM138.415 56.395C138.859 56.395 139.27 56.437 139.648 56.521C140.026 56.599 140.344 56.689 140.602 56.791C140.866 56.893 141.04 56.98 141.124 57.052L140.341 58.429C140.221 58.333 140.005 58.219 139.693 58.087C139.387 57.955 139.045 57.889 138.667 57.889C138.325 57.889 138.037 57.949 137.803 58.069C137.569 58.183 137.452 58.357 137.452 58.591C137.452 58.825 137.578 59.011 137.83 59.149C138.082 59.287 138.433 59.407 138.883 59.509C139.261 59.587 139.633 59.707 139.999 59.869C140.365 60.025 140.668 60.253 140.908 60.553C141.148 60.847 141.268 61.24 141.268 61.732C141.268 62.218 141.163 62.623 140.953 62.947C140.749 63.265 140.476 63.517 140.134 63.703C139.792 63.889 139.417 64.021 139.009 64.099C138.601 64.177 138.196 64.216 137.794 64.216C137.272 64.216 136.813 64.165 136.417 64.063C136.021 63.967 135.694 63.856 135.436 63.73C135.184 63.598 135.004 63.487 134.896 63.397L135.679 61.867C135.835 62.005 136.09 62.158 136.444 62.326C136.804 62.488 137.191 62.569 137.605 62.569C138.037 62.569 138.376 62.494 138.622 62.344C138.874 62.194 139 61.993 139 61.741C139 61.555 138.94 61.405 138.82 61.291C138.7 61.171 138.535 61.072 138.325 60.994C138.115 60.916 137.869 60.847 137.587 60.787C137.329 60.733 137.065 60.655 136.795 60.553C136.525 60.445 136.273 60.304 136.039 60.13C135.805 59.956 135.616 59.74 135.472 59.482C135.328 59.218 135.256 58.903 135.256 58.537C135.256 58.069 135.406 57.679 135.706 57.367C136.006 57.049 136.396 56.809 136.876 56.647C137.356 56.479 137.869 56.395 138.415 56.395ZM149.795 67.744H147.527V56.611H149.822V57.808C149.894 57.634 150.05 57.436 150.29 57.214C150.53 56.992 150.842 56.8 151.226 56.638C151.616 56.476 152.06 56.395 152.558 56.395C153.26 56.395 153.872 56.566 154.394 56.908C154.916 57.25 155.318 57.718 155.6 58.312C155.888 58.9 156.032 59.566 156.032 60.31C156.032 61.054 155.882 61.723 155.582 62.317C155.282 62.905 154.865 63.37 154.331 63.712C153.797 64.048 153.176 64.216 152.468 64.216C151.934 64.216 151.475 64.12 151.091 63.928C150.707 63.736 150.407 63.52 150.191 63.28C149.975 63.04 149.843 62.851 149.795 62.713V67.744ZM153.791 60.31C153.791 59.896 153.701 59.533 153.521 59.221C153.347 58.903 153.113 58.657 152.819 58.483C152.525 58.303 152.198 58.213 151.838 58.213C151.46 58.213 151.118 58.303 150.812 58.483C150.506 58.663 150.263 58.912 150.083 59.23C149.909 59.542 149.822 59.902 149.822 60.31C149.822 60.718 149.909 61.081 150.083 61.399C150.263 61.711 150.506 61.957 150.812 62.137C151.118 62.311 151.46 62.398 151.838 62.398C152.198 62.398 152.525 62.311 152.819 62.137C153.113 61.963 153.347 61.72 153.521 61.408C153.701 61.09 153.791 60.724 153.791 60.31ZM159.645 64H157.359V56.611H159.645V57.808H159.6C159.642 57.664 159.756 57.481 159.942 57.259C160.134 57.037 160.398 56.839 160.734 56.665C161.07 56.485 161.475 56.395 161.949 56.395C162.291 56.395 162.6 56.446 162.876 56.548C163.158 56.644 163.359 56.74 163.479 56.836L162.579 58.708C162.501 58.612 162.354 58.513 162.138 58.411C161.928 58.309 161.664 58.258 161.346 58.258C160.968 58.258 160.653 58.363 160.401 58.573C160.149 58.777 159.96 59.029 159.834 59.329C159.708 59.623 159.645 59.899 159.645 60.157V64ZM165.84 60.814C165.858 61.15 165.948 61.45 166.11 61.714C166.272 61.978 166.506 62.185 166.812 62.335C167.124 62.485 167.496 62.56 167.928 62.56C168.318 62.56 168.66 62.512 168.954 62.416C169.254 62.32 169.506 62.203 169.71 62.065C169.92 61.921 170.076 61.783 170.178 61.651L171.123 63.055C170.955 63.265 170.73 63.46 170.448 63.64C170.172 63.814 169.818 63.952 169.386 64.054C168.96 64.162 168.426 64.216 167.784 64.216C166.974 64.216 166.263 64.057 165.651 63.739C165.039 63.421 164.562 62.962 164.22 62.362C163.878 61.762 163.707 61.048 163.707 60.22C163.707 59.5 163.86 58.852 164.166 58.276C164.472 57.694 164.916 57.235 165.498 56.899C166.086 56.563 166.791 56.395 167.613 56.395C168.387 56.395 169.056 56.545 169.62 56.845C170.19 57.139 170.631 57.571 170.943 58.141C171.255 58.711 171.411 59.407 171.411 60.229C171.411 60.277 171.408 60.376 171.402 60.526C171.402 60.67 171.396 60.766 171.384 60.814H165.84ZM169.269 59.401C169.263 59.209 169.203 59.002 169.089 58.78C168.981 58.558 168.81 58.369 168.576 58.213C168.342 58.057 168.03 57.979 167.64 57.979C167.25 57.979 166.929 58.054 166.677 58.204C166.431 58.354 166.245 58.54 166.119 58.762C165.993 58.978 165.921 59.191 165.903 59.401H169.269ZM176.05 56.395C176.494 56.395 176.905 56.437 177.283 56.521C177.661 56.599 177.979 56.689 178.237 56.791C178.501 56.893 178.675 56.98 178.759 57.052L177.976 58.429C177.856 58.333 177.64 58.219 177.328 58.087C177.022 57.955 176.68 57.889 176.302 57.889C175.96 57.889 175.672 57.949 175.438 58.069C175.204 58.183 175.087 58.357 175.087 58.591C175.087 58.825 175.213 59.011 175.465 59.149C175.717 59.287 176.068 59.407 176.518 59.509C176.896 59.587 177.268 59.707 177.634 59.869C178 60.025 178.303 60.253 178.543 60.553C178.783 60.847 178.903 61.24 178.903 61.732C178.903 62.218 178.798 62.623 178.588 62.947C178.384 63.265 178.111 63.517 177.769 63.703C177.427 63.889 177.052 64.021 176.644 64.099C176.236 64.177 175.831 64.216 175.429 64.216C174.907 64.216 174.448 64.165 174.052 64.063C173.656 63.967 173.329 63.856 173.071 63.73C172.819 63.598 172.639 63.487 172.531 63.397L173.314 61.867C173.47 62.005 173.725 62.158 174.079 62.326C174.439 62.488 174.826 62.569 175.24 62.569C175.672 62.569 176.011 62.494 176.257 62.344C176.509 62.194 176.635 61.993 176.635 61.741C176.635 61.555 176.575 61.405 176.455 61.291C176.335 61.171 176.17 61.072 175.96 60.994C175.75 60.916 175.504 60.847 175.222 60.787C174.964 60.733 174.7 60.655 174.43 60.553C174.16 60.445 173.908 60.304 173.674 60.13C173.44 59.956 173.251 59.74 173.107 59.482C172.963 59.218 172.891 58.903 172.891 58.537C172.891 58.069 173.041 57.679 173.341 57.367C173.641 57.049 174.031 56.809 174.511 56.647C174.991 56.479 175.504 56.395 176.05 56.395ZM182.205 60.814C182.223 61.15 182.313 61.45 182.475 61.714C182.637 61.978 182.871 62.185 183.177 62.335C183.489 62.485 183.861 62.56 184.293 62.56C184.683 62.56 185.025 62.512 185.319 62.416C185.619 62.32 185.871 62.203 186.075 62.065C186.285 61.921 186.441 61.783 186.543 61.651L187.488 63.055C187.32 63.265 187.095 63.46 186.813 63.64C186.537 63.814 186.183 63.952 185.751 64.054C185.325 64.162 184.791 64.216 184.149 64.216C183.339 64.216 182.628 64.057 182.016 63.739C181.404 63.421 180.927 62.962 180.585 62.362C180.243 61.762 180.072 61.048 180.072 60.22C180.072 59.5 180.225 58.852 180.531 58.276C180.837 57.694 181.281 57.235 181.863 56.899C182.451 56.563 183.156 56.395 183.978 56.395C184.752 56.395 185.421 56.545 185.985 56.845C186.555 57.139 186.996 57.571 187.308 58.141C187.62 58.711 187.776 59.407 187.776 60.229C187.776 60.277 187.773 60.376 187.767 60.526C187.767 60.67 187.761 60.766 187.749 60.814H182.205ZM185.634 59.401C185.628 59.209 185.568 59.002 185.454 58.78C185.346 58.558 185.175 58.369 184.941 58.213C184.707 58.057 184.395 57.979 184.005 57.979C183.615 57.979 183.294 58.054 183.042 58.204C182.796 58.354 182.61 58.54 182.484 58.762C182.358 58.978 182.286 59.191 182.268 59.401H185.634ZM191.443 64H189.157V56.611H191.443V57.808H191.398C191.44 57.664 191.554 57.481 191.74 57.259C191.932 57.037 192.196 56.839 192.532 56.665C192.868 56.485 193.273 56.395 193.747 56.395C194.089 56.395 194.398 56.446 194.674 56.548C194.956 56.644 195.157 56.74 195.277 56.836L194.377 58.708C194.299 58.612 194.152 58.513 193.936 58.411C193.726 58.309 193.462 58.258 193.144 58.258C192.766 58.258 192.451 58.363 192.199 58.573C191.947 58.777 191.758 59.029 191.632 59.329C191.506 59.623 191.443 59.899 191.443 60.157V64ZM195.438 56.611H197.886L199.911 61.912L201.936 56.611H204.375L201.252 64H198.57L195.438 56.611ZM207.324 60.814C207.342 61.15 207.432 61.45 207.594 61.714C207.756 61.978 207.99 62.185 208.296 62.335C208.608 62.485 208.98 62.56 209.412 62.56C209.802 62.56 210.144 62.512 210.438 62.416C210.738 62.32 210.99 62.203 211.194 62.065C211.404 61.921 211.56 61.783 211.662 61.651L212.607 63.055C212.439 63.265 212.214 63.46 211.932 63.64C211.656 63.814 211.302 63.952 210.87 64.054C210.444 64.162 209.91 64.216 209.268 64.216C208.458 64.216 207.747 64.057 207.135 63.739C206.523 63.421 206.046 62.962 205.704 62.362C205.362 61.762 205.191 61.048 205.191 60.22C205.191 59.5 205.344 58.852 205.65 58.276C205.956 57.694 206.4 57.235 206.982 56.899C207.57 56.563 208.275 56.395 209.097 56.395C209.871 56.395 210.54 56.545 211.104 56.845C211.674 57.139 212.115 57.571 212.427 58.141C212.739 58.711 212.895 59.407 212.895 60.229C212.895 60.277 212.892 60.376 212.886 60.526C212.886 60.67 212.88 60.766 212.868 60.814H207.324ZM210.753 59.401C210.747 59.209 210.687 59.002 210.573 58.78C210.465 58.558 210.294 58.369 210.06 58.213C209.826 58.057 209.514 57.979 209.124 57.979C208.734 57.979 208.413 58.054 208.161 58.204C207.915 58.354 207.729 58.54 207.603 58.762C207.477 58.978 207.405 59.191 207.387 59.401H210.753ZM217.634 64.216C216.932 64.216 216.314 64.048 215.78 63.712C215.252 63.37 214.838 62.905 214.538 62.317C214.244 61.723 214.097 61.054 214.097 60.31C214.097 59.566 214.244 58.9 214.538 58.312C214.838 57.718 215.252 57.25 215.78 56.908C216.314 56.566 216.932 56.395 217.634 56.395C218.132 56.395 218.573 56.476 218.957 56.638C219.347 56.8 219.659 56.992 219.893 57.214C220.127 57.436 220.265 57.634 220.307 57.808V51.616H222.602V64H220.334V62.713C220.238 62.923 220.061 63.145 219.803 63.379C219.545 63.613 219.23 63.811 218.858 63.973C218.486 64.135 218.078 64.216 217.634 64.216ZM218.282 62.398C218.666 62.398 219.011 62.311 219.317 62.137C219.623 61.957 219.863 61.711 220.037 61.399C220.217 61.081 220.307 60.718 220.307 60.31C220.307 59.902 220.217 59.542 220.037 59.23C219.863 58.912 219.623 58.663 219.317 58.483C219.011 58.303 218.666 58.213 218.282 58.213C217.928 58.213 217.604 58.303 217.31 58.483C217.016 58.657 216.779 58.903 216.599 59.221C216.425 59.533 216.338 59.896 216.338 60.31C216.338 60.724 216.425 61.09 216.599 61.408C216.779 61.72 217.016 61.963 217.31 62.137C217.604 62.311 217.928 62.398 218.282 62.398Z" fill="#F7D5A0"/>
</g>
<defs>
<clipPath id="clip0_1093_3506">
<rect width="399" height="72" fill="white"/>
</clipPath>
</defs>
</svg>
