<svg width="24" height="24" viewBox="0 0 24 24" fill="none" xmlns="http://www.w3.org/2000/svg">
<path d="M18.1004 10.4839C18.7444 10.4841 19.2668 11.0065 19.267 11.6506V18.7221C19.2666 21.0843 17.3515 22.9998 14.9895 23H10.0118C7.64963 23 5.73469 21.0844 5.73432 18.7221V11.6506C5.73448 11.0064 6.25671 10.4839 6.9009 10.4839C7.54506 10.4839 8.06732 11.0064 8.06748 11.6506V18.7221C8.06785 19.7957 8.9382 20.6666 10.0118 20.6666H14.9895C16.0629 20.6664 16.9334 19.7956 16.9338 18.7221V11.6506C16.934 11.0064 17.4562 10.4839 18.1004 10.4839Z" fill="#474653"/>
<path fill-rule="evenodd" clip-rule="evenodd" d="M10.7713 2.25327C12.3757 1.79482 14.277 1.93083 15.8568 2.8913L17.6872 4.0033C17.9043 4.13534 18.06 4.32825 18.152 4.54563L21.5181 3.60377C22.1385 3.43003 22.7828 3.79149 22.9566 4.41195C23.1302 5.03238 22.7673 5.67682 22.147 5.85056L3.48166 11.0779C2.86158 11.251 2.2169 10.8883 2.04318 10.2682C1.87006 9.64822 2.23311 9.00508 2.8528 8.83109L6.62292 7.77378C6.60836 7.62974 6.61978 7.47931 6.66242 7.33171L7.17887 5.54978C7.68007 3.81769 9.17929 2.70845 10.7713 2.25327ZM14.6447 4.8844C13.6872 4.3025 12.47 4.19479 11.4123 4.49702C10.3427 4.80294 9.63346 5.4586 9.41938 6.19844L9.16875 7.06131L15.3693 5.32494L14.6447 4.8844Z" fill="#474653"/>
</svg>
