<svg width="24" height="24" viewBox="0 0 24 24" fill="none" xmlns="http://www.w3.org/2000/svg">
<g clip-path="url(#clip0_1420_992)">
<path d="M18.0677 17.7953L17.0885 15.8369L16.1094 17.7953H18.0677Z" fill="#E2C4A7"/>
<path d="M21.8913 10.1746H20.8951V8.06697C20.8951 7.96865 20.8745 7.87142 20.8346 7.78157C20.7947 7.69171 20.7364 7.61123 20.6634 7.54531C20.5905 7.47939 20.5045 7.4295 20.4111 7.39887C20.3177 7.36823 20.2189 7.35753 20.121 7.36745C20.0091 7.3788 17.5014 7.66239 16.2529 10.1746H15.2312V11.7163C15.2312 13.6543 13.6545 15.231 11.7165 15.231H10.1748V21.8912C10.1748 23.0538 11.1207 23.9996 12.2833 23.9996H21.8913C23.0539 23.9997 23.9998 23.0538 23.9998 21.8912V12.2831C23.9998 11.1205 23.0539 10.1746 21.8913 10.1746ZM13.6359 19.5952L16.4583 13.9503C16.5167 13.8334 16.6065 13.7352 16.7176 13.6665C16.8287 13.5979 16.9567 13.5615 17.0873 13.5615C17.2178 13.5615 17.3458 13.5979 17.4569 13.6665C17.568 13.7352 17.6578 13.8334 17.7162 13.9503L20.5387 19.5952C20.7123 19.9425 20.5715 20.3648 20.2242 20.5385C19.8769 20.7123 19.4545 20.5714 19.2809 20.2241L18.7696 19.2016H15.405L14.8937 20.2241C14.7705 20.4705 14.5222 20.6129 14.2643 20.6129C14.1586 20.6129 14.0513 20.589 13.9504 20.5385C13.603 20.3649 13.4623 19.9425 13.6359 19.5952ZM7.57861 5.92188H6.24609C6.33309 6.61848 6.55608 7.20419 6.91238 7.67613C7.26863 7.20419 7.49161 6.61848 7.57861 5.92188Z" fill="#E2C4A7"/>
<path d="M11.7166 13.8251C12.8792 13.8251 13.8251 12.8792 13.8251 11.7166V2.10854C13.8251 0.945896 12.8792 5.84815e-06 11.7166 5.84815e-06H2.10853C0.945891 5.84815e-06 0 0.945896 0 2.10854V11.7166C0 12.8792 0.945891 13.8251 2.10848 13.8251H3.10467V15.9327C3.10467 16.031 3.1253 16.1283 3.16521 16.2181C3.20512 16.308 3.26343 16.3885 3.33638 16.4544C3.40933 16.5203 3.49529 16.5702 3.58871 16.6008C3.68214 16.6315 3.78095 16.6422 3.87877 16.6322C3.9907 16.6209 6.49842 16.3373 7.74694 13.8251H11.7166ZM7.28728 9.79093C7.15915 9.72245 7.03412 9.64831 6.91256 9.56874C6.79101 9.64832 6.66598 9.72246 6.53784 9.79093C5.33813 10.4308 4.14052 10.4381 4.09013 10.4381C3.70181 10.4381 3.387 10.1233 3.387 9.735C3.387 9.34669 3.70181 9.03188 4.09013 9.03188C4.09631 9.03183 4.96383 9.01922 5.82703 8.57569C5.33316 7.94325 4.94391 7.08511 4.83145 5.92219H4.09008C3.70177 5.92219 3.38695 5.60738 3.38695 5.21907C3.38695 4.83076 3.70177 4.51594 4.09008 4.51594H6.20944V4.09008C6.20944 3.70177 6.52425 3.38696 6.91256 3.38696C7.30088 3.38696 7.61569 3.70177 7.61569 4.09008V4.51594H9.735C10.1233 4.51594 10.4381 4.83076 10.4381 5.21907C10.4381 5.60738 10.1233 5.92219 9.735 5.92219H8.99372C8.88122 7.08511 8.49202 7.94325 7.99814 8.57569C8.8613 9.01922 9.72895 9.03179 9.73791 9.03188C10.1262 9.03188 10.4396 9.34669 10.4396 9.735C10.4396 10.1233 10.1233 10.4381 9.735 10.4381C9.68461 10.4381 8.487 10.4308 7.28728 9.79093ZM17.1407 4.02277C17.278 4.16007 17.458 4.22874 17.6379 4.22874C17.8178 4.22874 17.9978 4.16011 18.135 4.02277C18.4096 3.74818 18.4096 3.30301 18.135 3.02841L17.9332 2.82657C20.5211 2.9799 22.5797 5.13352 22.5797 7.75927C22.5797 8.14758 22.8945 8.4624 23.2828 8.4624C23.6711 8.4624 23.9859 8.14758 23.9859 7.75927C23.9859 4.35272 21.2886 1.56469 17.9176 1.41774L18.135 1.20029C18.4096 0.925693 18.4096 0.480521 18.135 0.205928C17.8605 -0.0686191 17.4153 -0.068666 17.1407 0.205928L15.7295 1.61719C15.4549 1.89179 15.4549 2.33696 15.7295 2.61155L17.1407 4.02277ZM6.84525 19.9632C6.5707 19.6886 6.12548 19.6886 5.85089 19.9632C5.5763 20.2378 5.5763 20.6829 5.85089 20.9575L6.05273 21.1594C3.46481 21.0061 1.40625 18.8524 1.40625 16.2267C1.40625 15.8384 1.09144 15.5236 0.703125 15.5236C0.314813 15.5236 0 15.8384 0 16.2267C0 19.6332 2.69733 22.4213 6.06834 22.5682L5.85089 22.7857C5.5763 23.0603 5.5763 23.5054 5.85089 23.78C5.98819 23.9173 6.16814 23.9859 6.34805 23.9859C6.52795 23.9859 6.70795 23.9173 6.8452 23.78L8.25642 22.3688C8.53102 22.0942 8.53102 21.649 8.25642 21.3744L6.84525 19.9632Z" fill="#E2C4A7"/>
</g>
<defs>
<clipPath id="clip0_1420_992">
<rect width="24" height="24" fill="white"/>
</clipPath>
</defs>
</svg>
