<svg width="56" height="56" viewBox="0 0 56 56" fill="none" xmlns="http://www.w3.org/2000/svg">
<rect width="56" height="56" rx="28" fill="#E2C4A7"/>
<path d="M11.0018 32.0034C11.5274 34.2357 12.4876 36.3425 13.8275 38.2036C15.1673 40.0647 16.8607 41.6436 18.8108 42.8502C20.761 44.0568 22.9297 44.8675 25.1932 45.2359C27.4566 45.6043 29.7705 45.5233 32.0026 44.9974C34.2347 44.4718 36.3413 43.5118 38.2023 42.1721C40.0633 40.8324 41.6422 39.1392 42.8488 37.1893C44.0555 35.2394 44.8663 33.0709 45.2349 30.8077C45.6035 28.5444 45.5227 26.2308 44.9971 23.9987C44.4718 21.7665 43.5119 19.6595 42.1723 17.7982C40.8326 15.937 39.1394 14.3578 37.1895 13.151C35.2395 11.9441 33.0709 11.1331 30.8074 10.7644C28.544 10.3957 26.2301 10.4765 23.9979 11.0021C21.7655 11.5274 19.6584 12.4875 17.797 13.8273C15.9356 15.1671 14.3564 16.8605 13.1496 18.8107C11.9427 20.7609 11.1319 22.9298 10.7634 25.1934C10.3948 27.457 10.4759 29.7711 11.0018 32.0034ZM38.2774 17.2319C38.5893 17.5329 38.8738 17.8611 39.1275 18.2126C36.4492 19.1264 26.9982 22.7468 25.3795 28.816C23.7328 34.9908 17.8763 37.1984 16.4129 37.6604C16.4124 37.6665 16.4138 37.6726 16.417 37.6779C18.4271 37.1815 28.4151 34.4246 29.5668 28.3664C30.6594 22.6052 37.6608 19.7849 39.6705 19.0815C41.9572 23.3771 40.2878 30.0913 35.3175 35.2509C29.5597 41.2312 21.5496 42.8664 17.4258 38.8928C17.0472 38.5278 16.7094 38.1226 16.4185 37.6844C16.2004 37.7358 16.0674 37.7671 16.0674 37.7671C16.0674 37.7671 16.1895 37.7383 16.4078 37.6685C13.5921 33.4238 15.1727 26.2932 20.3889 20.8777C26.145 14.9001 34.1524 13.2633 38.2774 17.2319Z" fill="url(#paint0_linear_948_1855)"/>
<defs>
<linearGradient id="paint0_linear_948_1855" x1="15.2779" y1="39.9672" x2="40.7205" y2="16.0328" gradientUnits="userSpaceOnUse">
<stop stop-color="#633628"/>
<stop offset="1" stop-color="#553A32"/>
</linearGradient>
</defs>
</svg>
