<svg width="1440" height="599" viewBox="0 0 1440 599" fill="none" xmlns="http://www.w3.org/2000/svg">
<path fill-rule="evenodd" clip-rule="evenodd" d="M-1328.55 104.825C-1013.9 -40.0726 -650.525 -34.5015 -340.467 119.973C-160.083 209.843 46.616 231.806 241.858 181.852L772.863 45.9896C856.084 24.6965 940.404 76.5473 958.954 160.423C1008.98 386.633 1209.52 547.667 1441.2 547.667H1688.54C1772.49 547.667 1840.54 615.72 1840.54 699.667C1840.54 783.615 1772.49 851.667 1688.54 851.667H74.0396C-9.90771 851.667 -77.9604 783.615 -77.9604 699.667C-77.9604 615.72 -9.90771 547.667 74.0396 547.667H639.089C687.43 547.667 723.355 502.929 712.916 455.729C703.689 414.005 661.745 388.213 620.347 398.805L317.211 476.366C51.2527 544.414 -230.312 514.493 -476.031 392.073C-703.646 278.672 -970.402 274.582 -1201.39 380.953L-1585.06 557.635C-1877.19 692.165 -2212.26 698.446 -2509.23 574.958L-3174.32 298.399C-3251.83 266.167 -3288.54 177.202 -3256.31 99.6888C-3224.08 22.176 -3135.11 -14.5319 -3057.6 17.6996L-2392.51 294.259C-2173.91 385.159 -1927.26 380.536 -1712.21 281.507L-1328.55 104.825Z" fill="url(#paint0_linear_1146_3376)"/>
<defs>
<linearGradient id="paint0_linear_1146_3376" x1="-2338.49" y1="-0.185274" x2="281.007" y2="475.274" gradientUnits="userSpaceOnUse">
<stop offset="0.633138" stop-color="#E0C2A5"/>
<stop offset="1" stop-color="#607960"/>
</linearGradient>
</defs>
</svg>
