<svg width="1440" height="599" viewBox="0 0 1440 599" fill="none" xmlns="http://www.w3.org/2000/svg">
<path fill-rule="evenodd" clip-rule="evenodd" d="M105.455 104.825C420.101 -40.0725 783.476 -34.5015 1093.53 119.973C1273.92 209.842 1480.62 231.806 1675.86 181.852L2206.86 45.9896C2290.08 24.6965 2374.4 76.5472 2392.95 160.423C2442.98 386.633 2643.52 547.667 2875.2 547.667H3122.54C3206.49 547.668 3274.54 615.72 3274.54 699.667C3274.54 783.614 3206.49 851.667 3122.54 851.667H1508.04C1424.09 851.667 1356.04 783.615 1356.04 699.667C1356.04 615.72 1424.09 547.667 1508.04 547.667H2073.09C2121.43 547.667 2157.35 502.929 2146.92 455.728C2137.69 414.005 2095.74 388.213 2054.35 398.805L1751.21 476.366C1485.25 544.413 1203.69 514.493 957.969 392.073C730.354 278.672 463.598 274.583 232.614 380.952L-151.055 557.635C-443.189 692.165 -778.262 698.446 -1075.23 574.958L-1740.32 298.399C-1817.83 266.167 -1854.54 177.202 -1822.31 99.6888C-1790.08 22.1759 -1701.11 -14.5319 -1623.6 17.6995L-958.511 294.259C-739.908 385.159 -493.258 380.536 -278.214 281.507L105.455 104.825Z" fill="url(#paint0_linear_1146_3149)"/>
<defs>
<linearGradient id="paint0_linear_1146_3149" x1="-904.488" y1="-0.185298" x2="1958.01" y2="508.271" gradientUnits="userSpaceOnUse">
<stop offset="0.633138" stop-color="#987758"/>
<stop offset="1" stop-color="#768176"/>
</linearGradient>
</defs>
</svg>
