<svg width="1440" height="599" viewBox="0 0 1440 599" fill="none" xmlns="http://www.w3.org/2000/svg">
<path fill-rule="evenodd" clip-rule="evenodd" d="M1623.45 104.825C1938.1 -40.0726 2301.48 -34.5015 2611.53 119.973C2791.92 209.842 2998.62 231.806 3193.86 181.852L3724.86 45.9896C3808.08 24.6965 3892.4 76.5473 3910.95 160.423C3960.98 386.633 4161.52 547.667 4393.2 547.667H4640.54C4724.49 547.667 4792.54 615.72 4792.54 699.667C4792.54 783.614 4724.49 851.667 4640.54 851.667H3026.04C2942.09 851.667 2874.04 783.615 2874.04 699.667C2874.04 615.72 2942.09 547.667 3026.04 547.667H3591.09C3639.43 547.667 3675.35 502.929 3664.92 455.729C3655.69 414.005 3613.74 388.213 3572.35 398.805L3269.21 476.366C3003.25 544.414 2721.69 514.493 2475.97 392.073C2248.35 278.672 1981.6 274.582 1750.61 380.953L1366.94 557.635C1074.81 692.165 739.738 698.446 442.767 574.958L-222.321 298.399C-299.834 266.167 -336.542 177.202 -304.31 99.6888C-272.079 22.176 -183.113 -14.5319 -105.6 17.6996L559.489 294.259C778.092 385.159 1024.74 380.536 1239.79 281.507L1623.45 104.825Z" fill="url(#paint0_linear_1146_3102)"/>
<defs>
<linearGradient id="paint0_linear_1146_3102" x1="613.512" y1="-0.185298" x2="3476.01" y2="508.271" gradientUnits="userSpaceOnUse">
<stop offset="0.234626" stop-color="#977758"/>
<stop offset="0.540613" stop-color="#E0C2A5"/>
<stop offset="1" stop-color="#768176"/>
</linearGradient>
</defs>
</svg>
